<?xml version="1.0" encoding="utf-8"?>
<!-- Generator: Adobe Illustrator 27.5.0, SVG Export Plug-In . SVG Version: 6.00 Build 0)  -->
<svg version="1.1" xmlns="http://www.w3.org/2000/svg" xmlns:xlink="http://www.w3.org/1999/xlink" x="0px" y="0px"
	 viewBox="0 0 500 500" style="enable-background:new 0 0 500 500;" xml:space="preserve">
<g id="BACKGROUND">
	<g>
		<rect style="fill:#FFFFFF;" width="500" height="500"/>
	</g>
</g>
<g id="OBJECTS">
	<g>
		<path style="fill:none;" d="M177.255,168.189c-2.751-0.142-5.499-0.575-8.222-0.908c-0.682-0.083-1.368-0.144-2.052-0.22
			c-0.743,0.448-1.484,0.898-2.239,1.329c-1.88,1.074-3.783,2.132-5.858,2.784c-0.268,0.084-0.358-0.309-0.113-0.409
			c2.072-0.849,3.667-2.45,5.271-3.961c0.019-0.018,0.04-0.033,0.059-0.051c-1.761-0.162-3.524-0.296-5.285-0.393
			c-6.846-0.374-13.715-0.013-20.557,0.293c-0.183,0.008-0.173-0.258,0-0.278c6.984-0.813,13.977-1.559,21.003-1.885
			c1.646-0.076,3.288-0.114,4.929-0.1c-1.561-0.673-3.128-1.332-4.728-1.908c-3.79-1.365-7.702-2.342-11.685-2.94
			c-0.23-0.035-0.172-0.416,0.054-0.402c4.13,0.257,8.236,0.872,12.252,1.876c2.089,0.522,4.147,1.138,6.148,1.939
			c0.824,0.33,1.597,0.661,2.325,1.05c0.174-0.027,0.351-0.046,0.502-0.034c0.063,0.005,0.423,0.097,0.336,0.076
			c-0.086-0.02,0.23,0.031,0.244,0.035c0.261,0.077,0.397,0.378,0.269,0.622c1.925,0.206,3.872,0.516,5.743,1.06
			c-0.34-0.573-0.676-1.149-1.021-1.722c-1.086-1.806-2.329-3.198-4.167-4.253c-0.855-0.49-1.721-0.966-2.507-1.537
			c-2.795-0.779-5.639-1.382-8.53-1.63c-11.701-1.006-23.537,2.972-32.272,10.772c3.35,0.138,6.557,1.627,9.42,3.394
			c3.561,2.198,6.933,4.523,10.968,5.786c3.856,1.208,7.65,1.464,11.656,1.086c4.03-0.381,7.889-1.507,11.637-3.007
			c3.023-1.21,5.906-2.738,8.932-3.92c-0.607-0.489-1.191-1.006-1.714-1.572C177.766,168.85,177.509,168.52,177.255,168.189z"/>
		<path style="fill:none;" d="M248.535,239.133c0.004-0.046,0.006-0.093,0.01-0.14c0.865-10.038,2.158-20.272,6.415-29.504
			c0.063-0.136,0.267-0.034,0.208,0.102c-2.52,5.779-3.461,12.109-4.102,18.336c-0.301,2.927-0.394,5.865-0.576,8.8
			c1.835-4.101,4.289-7.852,6.684-11.637c2.323-3.672,4.615-7.487,5.587-11.77c1.075-4.733,0.482-9.645-0.441-14.351
			c-0.463-2.359-1.16-4.732-1.186-7.152c-0.017-1.539,0.286-2.942,0.909-4.271c-1.848,1.19-3.549,2.525-4.998,4.232
			c-1.766,2.08-3.201,4.404-4.348,6.877c-2.193,4.727-3.483,9.929-4.375,15.046c-0.924,5.299-1.33,10.705-1.031,16.079
			C247.466,232.917,247.875,236.053,248.535,239.133z"/>
		<path style="fill:none;" d="M295.781,85.878c0.681,2.454,0.648,5.05,0.534,7.572c-0.046,1.023-0.086,2.067-0.173,3.107
			c0.497-0.627,1.064-1.229,1.702-1.814c1.204-1.103,2.518-2.081,3.859-3.023c0.379-0.639,0.808-1.252,1.222-1.855
			c0.713-1.04,1.356-2.133,1.992-3.222c1.315-2.251,2.362-4.664,2.9-7.22c0.029-0.14,0.234-0.078,0.212,0.058
			c-0.438,2.64-1.027,5.253-2.029,7.741c-0.321,0.797-0.714,1.554-1.135,2.297c0.31-0.218,0.624-0.431,0.928-0.654
			c6.212-4.541,11.729-10.042,16.101-16.38c0.095-0.138,0.322-0.009,0.227,0.133c-3.976,5.987-8.596,11.573-13.967,16.36
			c-0.892,0.795-1.821,1.542-2.757,2.28c0.411-0.016,0.82-0.018,1.223,0.01c3.224,0.225,6.303,1.368,9.564,1.124
			c0.172-0.013,0.165,0.244,0,0.263c-2.974,0.345-5.949-0.186-8.925-0.14c-1.253,0.019-2.524,0.079-3.743,0.393
			c-0.127,0.033-0.246,0.082-0.369,0.122c-0.945,0.743-1.885,1.493-2.788,2.288c-2.201,1.939-4.596,4.392-5.685,7.168
			c-0.035,0.089-0.099,0.151-0.173,0.19c-0.883,1.6-2.086,3.013-3.303,4.378c-0.871,0.978-1.802,1.909-2.816,2.731
			c2.801-0.45,5.611-0.849,8.417-1.248c3.523-0.501,7.092-0.915,10.535-1.841c10.386-2.792,17.984-11.325,21.99-21.003
			c4.152-10.033,5.603-20.982,10.605-30.683c-4.247,0.6-8.456,1.483-12.586,2.634c-7.677,2.14-15.124,5.197-22.088,9.073
			c-3.076,1.712-6.141,3.549-8.64,6.061c-2.208,2.219-3.494,4.775-4.084,7.782C294.042,82.065,295.201,83.791,295.781,85.878z"/>
		<path style="fill:none;" d="M212.309,184.708c-0.256-1.884-0.708-3.737-0.889-5.623c-2.099-2.488-3.443-5.588-3.496-8.719
			c-0.358,0.548-0.721,1.089-1.083,1.621c-1.247,1.831-2.732,3.541-4.831,4.392c-1.071,0.434-2.194,0.595-3.327,0.6
			c-0.222,0.952-0.58,1.864-0.952,2.797c-0.404,1.012-0.793,2.028-1.184,3.044c0.064,2.255,0.158,4.495,0.489,6.746
			c0.411,2.796,1.049,5.482,2.165,8.086c0.123,0.288-0.292,0.544-0.429,0.251c-1.264-2.697-2.425-5.514-3.15-8.408
			c-0.235-0.94-0.401-1.888-0.538-2.841c-0.689,1.847-1.344,3.708-1.871,5.606c-1.634,5.884-2.624,11.886-2.902,17.988
			c-0.011,0.235-0.362,0.236-0.366,0c-0.094-6.102,0.395-12.244,1.552-18.239c0.52-2.692,1.064-5.394,1.855-8.023
			c-0.333,0.31-0.665,0.62-0.998,0.93c-1.801,1.674-3.344,3.505-4.747,5.521c-0.133,0.192-0.427,0.026-0.316-0.185
			c1.159-2.189,2.288-4.353,3.828-6.304c0.752-0.953,1.571-1.808,2.454-2.638c0.274-0.258,0.577-0.53,0.893-0.794
			c0.452-1.3,0.984-2.614,1.695-3.751c-0.529-0.086-1.055-0.189-1.57-0.305c-3.963-0.892-8.062-1.87-11.708-3.706
			c-0.127-0.064-0.249-0.142-0.375-0.209c-1.998,2.826-2.976,6.28-3.734,9.64c-0.965,4.279-1.871,8.679-1.746,13.085
			c0.128,4.531,1.626,8.896,3.455,13c3.433,7.703,7.518,15.017,11.871,22.222c1.016-3.875,1.04-8.005,3.459-11.399
			c2.037-2.857,4.972-4.947,7.708-7.081c3.02-2.356,5.558-4.914,7.208-8.419c1.753-3.724,2.287-7.879,2.148-11.958
			C212.799,189.33,212.62,186.995,212.309,184.708z"/>
		<path style="fill:none;" d="M291.167,112.135c2.083,1.211,4.065,2.669,5.95,4.085c2.693,2.022,5.22,4.25,7.618,6.613
			c4.841,4.771,8.811,10.154,12.353,15.939c0.074,0.121-0.113,0.229-0.189,0.111c-3.607-5.584-8.209-10.631-13.151-15.063
			c-1.172-1.051-2.387-2.054-3.624-3.029c0.886,1.286,1.692,2.627,2.391,4.025c1.89,3.786,3.44,7.672,4.954,11.62
			c0.065,0.171-0.218,0.287-0.294,0.124c-1.73-3.709-3.479-7.49-5.648-10.968c-1.104-1.771-2.24-3.543-3.529-5.186
			c-0.806-1.027-1.68-2.001-2.498-3.018c-1.681-1.147-3.43-2.181-5.166-3.233c0.273,0.3,0.537,0.614,0.783,0.947
			c1.411,1.909,2.191,4.024,2.875,6.272c0.676,2.223,2.248,3.854,3.164,5.953c0.168-0.008,0.345,0.063,0.471,0.24
			c2.199,3.107,3.5,6.836,5.455,10.108c1.877,3.142,4.075,6.133,6.97,8.416c4.786,3.774,11.718,4.674,15.809,9.273
			c1.196-4.338,1.879-8.794,1.699-13.312c-0.335-8.38-3.533-16.563-9.546-22.488c-2.772-2.732-6.093-4.965-9.739-6.351
			c-3.354-1.275-6.945-1.832-10.533-2.079c-0.527,0.077-1.054,0.153-1.578,0.234C294.498,111.628,292.833,111.889,291.167,112.135z"
			/>
		<path style="fill:none;" d="M322.003,279.826c7.713-4.134,16.28-5.77,24.914-6.556c0.086-0.008,0.082,0.121,0,0.132
			c-8.281,1.084-16.833,3.184-23.944,7.723c-3.069,1.959-5.689,4.428-8.078,7.164c-0.4,0.458-0.77,0.945-1.145,1.426
			c0.103-0.053,0.204-0.113,0.308-0.163c5.536-2.663,12.244-2.621,18.26-2.534c6.308,0.091,12.642,0.47,18.829-1.058
			c11.081-2.737,19.028-11.616,25.938-20.176c-5.328-3.497-12.501-4.43-18.725-4.398c-11.434,0.059-22.773,4.208-31.954,10.93
			c-5.057,3.702-9.591,8.455-13.149,13.812C315.789,283.576,318.849,281.517,322.003,279.826z"/>
		<path style="fill:none;" d="M230.445,292.342c-0.027-1.623-0.032-3.247-0.018-4.87c0.028-3.174,0.112-6.348,0.185-9.521
			c0.146-6.288,0.368-12.68-1.378-18.79c-0.067-0.237,0.295-0.334,0.367-0.101c1.847,5.977,2.188,12.22,2.507,18.426
			c0.169,3.289,0.35,6.578,0.473,9.869c0.337-1.112,0.7-2.215,1.07-3.29c1.782-5.182,3.737-10.267,4.297-15.762
			c0.552-5.41,0.04-10.85-1.541-16.055c-1.666-5.486-4.563-10.476-6.962-15.655c-2.05-4.427-3.749-8.975-5.331-13.58
			c-1.093,5.691-2.049,11.406-2.592,17.18c-1.017,10.821-0.045,21.596,2.509,32.147c1.248,5.156,2.821,10.242,4.62,15.232
			C229.228,289.171,229.833,290.758,230.445,292.342z"/>
		<path style="fill:none;" d="M309.989,275.193c0.906-3.135,2.118-6.185,3.429-9.171c4.753-10.83,10.466-21.268,17.555-30.752
			c3.589-4.802,7.345-9.369,10.083-14.739c2.694-5.284,4.668-10.962,5.763-16.793c0.042-0.225,0.372-0.126,0.338,0.093
			c-0.979,6.336-2.757,12.464-5.444,18.29c-2.502,5.425-5.817,10.366-8.997,15.402c-3.115,4.932-6.134,9.941-8.944,15.054
			c-2.534,4.609-4.843,9.323-7.003,14.115c0.18-0.26,0.359-0.522,0.54-0.779c4.428-6.269,9.82-11.819,14.84-17.604
			c5.089-5.865,9.83-11.859,13.399-18.793c3.563-6.922,6.126-14.281,7.475-21.951c1.287-7.321,1.853-14.751,3.441-22.016
			c-5.384,5.702-11.097,11.051-16.679,16.562c-5.345,5.277-10.5,10.776-14.829,16.933c-4.561,6.487-7.881,13.796-10.248,21.348
			c-2.128,6.788-3.522,13.758-4.484,20.806C310.216,265.862,310.152,270.531,309.989,275.193z"/>
		<path style="fill:none;" d="M235.485,319.197c-1.979-2.41-4.321-4.523-6.646-6.593c-2.756-2.454-5.43-4.998-8.136-7.508
			c-5.693-5.278-11.287-10.643-16.902-16.002c-0.178-0.17,0.09-0.435,0.269-0.269c3.34,3.103,6.833,6.048,10.293,9.016
			c3.071,2.634,6.193,5.195,9.373,7.697c2.891,2.275,5.9,4.392,8.751,6.719c1.126,0.919,2.213,1.898,3.248,2.928
			c-0.643-0.964-1.289-1.92-1.923-2.869c-3.878-5.806-7.762-11.69-12.289-17.018c-3.828-4.504-8.183-8.569-12.94-12.078
			c-8.784-6.48-18.869-11.051-29.514-13.413c4.537,4.106,8.303,8.974,11.882,13.928c3.704,5.128,7.235,10.418,11.472,15.132
			c2.104,2.341,4.364,4.525,6.891,6.409c2.922,2.179,6.114,3.808,9.403,5.348c5.691,2.665,11.905,4.817,16.89,8.73
			C235.566,319.302,235.527,319.247,235.485,319.197z"/>
		<path style="fill:none;" d="M296.553,333.16c-0.385-16.648-1.626-33.261-5.674-49.464c-0.059-0.238,0.305-0.338,0.367-0.101
			c1.219,4.653,2.392,9.322,3.391,14.028c1.476,6.951,2.759,13.948,3.649,20.998c0.32-5.451,0.737-10.896,1.03-16.35
			c0.375-6.993,0.837-14.176,0.014-21.151c-0.415-3.515-1.546-6.868-2.779-10.168c-1.232-3.297-2.485-6.587-3.731-9.88
			c-1.268-3.352-2.621-6.687-3.778-10.079c-0.826-2.42-1.37-4.94-2.285-7.324c-0.634,3.494-1.623,6.909-2.499,10.353
			c-1.083,4.255-1.815,8.618-2.087,13.002c-0.242,3.906-0.109,7.845,0.471,11.718c0.569,3.8,0.928,7.68,1.83,11.42
			c0.935,3.879,2.245,7.654,3.101,11.557c0.755,3.443,1.583,6.835,2.61,10.209c2.135,7.018,4.897,14.224,6.374,21.539
			C296.555,333.363,296.555,333.262,296.553,333.16z"/>
		<path style="fill:none;" d="M224.721,379.142c-0.074-0.225,0.278-0.319,0.352-0.097c3.028,8.944,5.142,18.165,8.208,27.094
			c0.855,2.49,1.793,4.953,2.802,7.386c-0.098-0.708-0.19-1.418-0.259-2.132c-0.61-6.269,0.373-12.51,0.564-18.772
			c0.188-6.178-0.238-12.289-1.419-18.356c-0.541-2.777-1.248-5.532-2.623-8.027c-1.24-2.251-3.033-4.104-4.952-5.788
			c-3.187-2.797-6.679-5.218-9.452-8.425c-1.467,7.168-2.236,14.62-1.628,21.912c1.012,12.138,6.629,22.659,12.802,32.907
			c1.869,3.102,3.799,6.249,5.61,9.469C230.097,404.357,228.695,391.314,224.721,379.142z"/>
		<path style="fill:none;" d="M220.36,338.557c-1.425-0.077-2.865-0.07-4.344,0.003c-3.61,0.177-7.038,1.316-10.574,1.983
			c-3.6,0.679-7.085,0.813-10.656-0.106c-3.523-0.907-6.672-2.566-9.986-4.006c-0.172-0.075-0.023-0.327,0.148-0.252
			c3.504,1.522,7.421,2.883,11.249,3.196c3.811,0.312,7.222-0.749,10.734-2.097c1.77-0.679,3.655-1.29,5.574-1.671
			c-2.795-1.185-5.515-2.539-8.059-4.203c-0.014-0.009-0.027-0.019-0.041-0.028c-0.485-0.152-0.971-0.307-1.456-0.438
			c-3.024-0.813-6.238-0.544-9.317-1.098c-5.694-1.025-11.054-3.997-15.45-7.678c-0.127-0.107,0.045-0.328,0.177-0.23
			c4.936,3.688,10.854,5.42,16.969,5.639c1.425,0.051,2.83,0.035,4.226,0.088c-2.641-2.264-5.149-4.693-7.891-6.84
			c-8.394-6.576-18.261-11.298-28.892-12.849c-0.196-0.029-0.148-0.366,0.047-0.345c5.956,0.654,11.673,1.865,17.253,4.103
			c4.791,1.922,9.546,4.235,13.724,7.292c2.559,1.872,4.895,4.022,7.303,6.076c-1.163-1.88-2.317-3.757-3.605-5.557
			c-2.876-4.021-6.29-7.779-10.886-9.808c-0.129-0.057-0.034-0.278,0.096-0.227c4.618,1.804,8.449,4.994,11.72,8.66
			c1.728,1.937,3.359,3.977,4.948,6.03c0.929,1.2,1.775,2.47,2.653,3.707c0.355,0.501,0.684,1.023,0.96,1.568
			c0.555,0.305,1.099,0.634,1.641,0.981c0.105,0.068,0.221,0.141,0.331,0.211c3.939,2.151,8.162,3.736,12.399,5.203
			c1.444,0.5,2.892,0.989,4.339,1.48c1.722,0.478,3.416,1.01,5.064,1.636c-4.2-3.258-7.811-7.166-11.456-11.084
			c-8.89-9.558-19.038-17.703-31.002-23.103c-11.554-5.215-25.201-7.277-37.073-2.012c5.812,4.281,10.949,9.465,14.986,15.462
			c3.809,5.659,6.345,12.286,11.191,17.2c2.584,2.62,5.797,4.582,9.061,6.239c3.356,1.704,6.899,3.017,10.627,3.605
			c7.889,1.244,15.668-0.781,23.322-2.468c1.965-0.433,3.931-0.846,5.915-1.188c0.68-0.117,1.372-0.225,2.067-0.314
			C225.706,340.432,223.029,339.496,220.36,338.557z"/>
		<path style="fill:none;" d="M253.129,422.618c11.971-13.792,27.67-23.789,44.471-30.639c0.162-0.066,0.276,0.213,0.118,0.281
			c-4.536,1.935-8.897,4.275-13.099,6.852c-7.528,4.615-14.482,10.125-20.778,16.314c-2.597,2.553-5.082,5.235-7.436,8.019
			c5.397-3.218,11.617-4.891,17.627-6.532c3.43-0.936,6.862-1.832,10.323-2.651c3.252-0.77,6.51-1.556,9.64-2.741
			c12.572-4.762,19.38-17.544,23.659-29.584c-7.491-0.99-14.975,0.24-22.104,2.612c-12.075,4.018-23.268,11.519-31.964,20.764
			c-4.365,4.64-8.114,9.907-11.025,15.575c-0.958,1.865-1.836,3.814-2.632,5.806C250.907,425.269,252.002,423.916,253.129,422.618z"
			/>
		<path d="M306.031,309.131c0.371-2.525,0.774-5.044,1.19-7.562c1.722-4.133,4.49-7.732,8.699-9.651
			c5.456-2.489,12.027-2.256,17.888-2.5c5.994-0.25,12.143-0.372,17.957-2.007c5.209-1.465,9.867-4.276,13.956-7.78
			c4.703-4.032,8.639-8.868,12.616-13.591c0.255-0.303,0.196-0.664-0.115-0.895c-4.808-3.57-11.362-4.854-17.216-5.363
			c-6.022-0.523-12.109-0.017-17.962,1.489c-11.508,2.96-22.058,9.893-29.158,19.452c-1.681,2.263-3.088,4.727-4.243,7.306
			c0.015-0.081,0.03-0.161,0.045-0.242c0.008-0.04-0.005-0.073-0.001-0.112c2.137-6.719,5.181-12.953,9.319-18.689
			c4.489-6.223,9.64-11.869,14.663-17.654c5.047-5.813,9.73-12,13.271-18.858c3.47-6.721,5.811-13.958,7.088-21.411
			c1.557-9.085,1.678-18.421,4.088-27.353c0.154-0.57-0.585-1.026-1.006-0.585c-10.6,11.107-22.745,20.766-32.17,32.972
			c-4.827,6.251-8.77,13.053-11.458,20.493c-2.849,7.887-4.489,16.132-5.306,24.465c-0.45,4.587-0.646,9.195-0.727,13.808
			c-0.131,1.562-0.266,3.124-0.378,4.687c-0.152,2.13-0.385,4.261-0.449,6.396c-0.066,2.199,0.022,4.39-0.13,6.586
			c-0.011,0.162-0.031,0.323-0.045,0.485c-0.705,3.669-1.374,7.343-1.997,11.024c-0.128,0.573-0.254,1.146-0.376,1.718
			c-0.025,0.116-0.006,0.212,0.03,0.296c-1,6.036-1.916,12.087-2.799,18.152c-0.169,1.159-0.343,2.321-0.522,3.484
			c0.012-0.605,0.009-1.21,0.026-1.816c0.203-7.265,0.689-14.519,0.918-21.784c0.226-7.177,0.283-14.501-0.572-21.641
			c-0.831-6.939-3.728-13.344-6.229-19.806c-1.499-3.871-3.068-7.722-4.485-11.624c-1.216-3.35-1.89-6.863-3.387-10.114
			c-0.243-0.528-1.178-0.41-1.278,0.167c-0.658,3.802-1.914,7.445-2.985,11.142c-1.095,3.776-1.878,7.596-2.342,11.501
			c-0.452,3.806-0.567,7.648-0.262,11.47c0.303,3.804,0.96,7.611,1.523,11.385c0.577,3.867,1.785,7.535,2.816,11.295
			c0.993,3.622,1.658,7.318,2.663,10.936c1.854,6.675,4.426,13.123,6.352,19.776c1.869,6.455,2.953,13.029,2.594,19.7
			c-1.254,3.689-2.793,7.274-4.746,10.683c-5.143,8.979-12.788,16.149-20.155,23.28c-3.853,3.729-7.651,7.496-11.124,11.527
			c2.482-4.428,4.967-8.855,7.253-13.386c5.138-10.185,8.963-20.768,10.393-32.128c1.234-9.802,0.814-19.738-0.672-29.49
			c0.128-2.724,0.011-5.468-0.151-8.176c-0.273-4.559-0.679-9.108-1.058-13.66c-0.753-9.047-1.625-18.092-1.25-27.182
			c0.187-4.523,0.695-9.021,1.653-13.448c0.963-4.445,2.303-8.802,3.656-13.141c2.379-7.628,4.834-15.275,7.878-22.668
			c0.284-0.689,0.585-1.374,0.883-2.06c0.841,0.404,1.752,0.698,2.684,0.665c0.816-0.029,1.56-0.199,2.227-0.698
			c0.5-0.374,0.911-0.895,1.015-1.497c0.064,0.008,0.127,0.026,0.192,0.033c4.562,0.528,8.906-1.294,12.582-3.858
			c6.873-4.794,12.365-12.246,13.837-20.596c0.818-4.643-0.02-9.159-1.249-13.62c-0.097-0.867-0.225-1.731-0.26-2.608
			c-0.053-1.327,0.039-2.664,0.222-3.978c0.353-2.541,1.091-4.993,2.065-7.362c0.229-0.558-0.47-0.948-0.869-0.535
			c-0.41,0.424-0.814,0.852-1.223,1.276c0.342-0.788,0.782-1.53,1.336-2.236c0.359-0.458-0.11-1.006-0.623-0.872
			c-1.491,0.39-2.565,1.283-3.603,2.299c0.094-0.935,0.365-1.843,0.878-2.648c0.347-0.545-0.197-1.139-0.768-0.817
			c-1.133,0.638-2.173,1.442-3.074,2.379c-0.037,0.008-0.072,0.014-0.107,0.028c-0.14-0.903-0.552-1.759-1.169-2.537
			c-0.211-0.266-0.754-0.308-0.874,0.087c-0.46,1.518-1.085,2.966-1.982,4.279c-0.446,0.652-0.936,1.277-1.406,1.913
			c-0.439,0.594-0.784,1.24-1.218,1.834c-3.987,2.024-7.566,4.725-10.952,7.634c-3.482,2.992-6.835,6.265-9.432,10.071
			c-4.276,6.265-6.6,14.846-2.698,21.844c0.52,0.932,1.172,1.816,1.918,2.626c0.154,0.278,0.33,0.536,0.508,0.794
			c-0.848,0.527-1.194,1.811-0.982,2.765c0.191,0.859,0.697,1.623,1.342,2.228c-3.667,6.817-6.641,14.03-9.102,21.404
			c-2.88,8.63-5.525,17.281-6.383,26.379c-0.872,9.247-0.236,18.58,0.697,27.797c0.26,2.567,0.559,5.13,0.856,7.693
			c-5.027-17.69-12.901-34.463-20.732-51.103c-0.432-0.919-0.863-1.838-1.294-2.756c0.066-0.106,0.096-0.241,0.055-0.404
			c-0.131-0.516-0.22-1.042-0.314-1.567c-0.028-2.429,0.673-4.887,1.67-7.156c1.753-3.991,3.998-7.716,6.195-11.471
			c2.07-3.539,4.011-7.199,5.036-11.194c1.114-4.343,0.863-8.895,0.092-13.272c-0.456-2.591-1.182-5.121-1.676-7.702
			c-0.455-2.38-0.62-5.443,1.265-7.279c0.288-0.28-0.078-0.716-0.416-0.609c-4.525,1.438-8.178,5.332-10.595,9.273
			c-2.831,4.615-4.355,9.988-5.472,15.245c-1.8,8.477-2.196,17.386-0.569,25.922c-7.416-16.313-14.074-32.866-17.666-50.552
			c0.833,0.438,1.646,0.916,2.48,1.342c5.968,3.045,13.258,1.299,18.485-2.531c1.189-0.871,2.279-1.862,3.19-3.023
			c1.005-1.281,1.61-2.737,2.408-4.139c0.839-1.474,2.114-2.427,3.337-3.557c1.108-1.024,1.906-2.199,2.411-3.625
			c1.022-2.887,1.52-6.326,1.472-9.465c0.794,1.669,1.693,3.28,2.887,4.705c4.527,5.408,13.168,5.445,17.612-0.075
			c1.279-1.589,2.308-3.395,3.969-4.631c1.566-1.165,3.411-1.893,4.968-3.071c1.26-0.954,2.413-2.265,2.786-3.84
			c0.376-1.589-0.246-2.99-0.893-4.409c-0.366-0.803-0.878-1.808-0.689-2.725c0.197-0.956,1.154-1.851,1.679-2.65
			c1.135-1.728,2.078-3.598,2.713-5.568c0.585-1.816,0.892-3.738,0.868-5.65c0.818,1.862,1.796,3.668,2.759,5.359
			c1.807,3.173,4.052,6.177,6.859,8.535c2.745,2.306,5.924,3.676,9.184,5.079c3.162,1.361,6.425,2.87,8.267,5.933
			c0.461,0.766,1.484,0.525,1.775-0.232c3.402-8.858,3.499-19.355-0.272-28.116c-3.191-7.416-9.237-13.698-16.753-16.751
			c-3.323-1.35-6.772-1.87-10.272-2.05c2.009-0.3,4.016-0.627,5.981-1.11c5.24-1.288,10.037-3.907,14.053-7.499
			c3.934-3.518,7.111-7.893,9.348-12.665c2.42-5.162,3.872-10.688,5.29-16.19c1.65-6.4,3.29-12.919,6.607-18.697
			c0.162-0.283-0.038-0.75-0.407-0.709c-8.401,0.943-16.654,2.862-24.567,5.848c-3.991,1.506-7.879,3.306-11.632,5.331
			c-3.191,1.721-6.321,3.631-8.918,6.193c-2.202,2.172-4.119,4.972-4.375,8.07c-1.539-1.353-3.122-2.628-4.372-4.289
			c-1.486-1.973-2.623-4.041-4.668-5.518c-1.812-1.308-3.962-2.112-6.054-2.85c-2.25-0.793-4.582-1.532-6.414-3.127
			c-1.923-1.674-3.333-3.853-5.569-5.168c-3.996-2.35-9.257-2.405-13.713-1.687c-2.386,0.385-4.849,1.177-6.691,2.805
			c-2.15,1.9-2.791,4.615-3.568,7.251c-0.992,3.369-1.888,6.815-2.604,10.292c-0.003-0.259,0.008-0.514,0.001-0.774
			c-0.081-2.84-0.197-5.738-0.97-8.486c-1.314-4.667-4.524-9.112-9.824-8.985c-1.626,0.039-3.15-0.016-4.743-0.401
			c-1.647-0.398-3.252-0.952-4.909-1.311c-3.349-0.724-6.759-0.875-10.171-0.653c-3.378,0.219-6.751,0.721-10.096,1.232
			c-1.266,0.193-2.505,0.522-3.531,1.323c-1.027,0.802-1.703,1.922-2.288,3.067c-1.333,2.608-2.671,4.816-5.243,6.396
			c-1.173,0.721-2.45,1.255-3.789,1.576c-1.621,0.388-3.248,0.287-4.9,0.309c-2.612,0.035-4.977,0.728-6.999,2.423
			c-1.895,1.588-3.225,3.837-3.926,6.191c-0.804,2.699-0.527,5.284-0.086,8.017c0.266,1.65,0.408,3.252,0.175,4.915
			c-0.217,1.556-0.645,3.081-1.042,4.598c-0.74,2.829-1.492,5.808-0.657,8.709c0.704,2.449,2.456,4.375,4.618,5.66
			c1.06,0.63,2.215,1.062,3.415,1.352c-2.535,0.477-5.043,1.324-7.26,2.497c-3.413,1.805-5.738,4.678-6.72,8.423
			c-0.587,2.239-0.766,4.552-1.228,6.814c-0.471,2.307-1.386,4.504-1.793,6.826c-0.349,1.987-0.323,4.062,0.734,5.844
			c0.911,1.537,2.428,2.539,3.876,3.514c1.791,1.206,3.156,2.399,3.845,4.509c0.605,1.854,0.839,3.872,1.895,5.555
			c0.133,0.212,0.277,0.412,0.43,0.601c-11.275-3.227-23.717-1.699-33.926,4.253c-3.225,1.88-6.199,4.18-8.838,6.819
			c-0.744,0.743,0.023,1.9,0.985,1.693c4.295-0.923,8.344,1.15,11.877,3.382c3.438,2.172,6.779,4.28,10.698,5.486
			c7.548,2.323,16.053,2.33,23.531-0.264c3.944-1.368,7.8-3.209,10.66-6.288c0.077,0.048,0.152,0.098,0.229,0.145
			c-1.909,1.994-3.193,4.514-4.098,7.164c-1.437,4.206-2.418,8.744-2.772,13.173c-0.763,9.555,4.051,18.494,8.509,26.604
			c2.613,4.754,5.432,9.417,8.616,13.812c0.404,0.558,1.21,0.483,1.443-0.189c1.42-4.087,0.959-8.728,3.695-12.316
			c2.236-2.933,5.592-4.645,8.564-6.705c3.222-2.234,5.962-4.945,7.676-8.523c1.8-3.758,2.629-7.982,2.579-12.14
			c-0.031-2.619-0.413-5.168-1.096-7.694c-0.36-1.33-0.723-2.694-1.184-4.015c2.109,1.77,4.598,3.123,7.382,3.322
			c1.419,0.101,2.842-0.011,4.241,0.183c1.339,8.08,3.258,16.049,5.78,23.864c3.561,11.034,8.104,21.724,12.876,32.281
			c9.589,21.216,20.444,41.944,26.396,64.583c2.921,11.111,4.69,22.583,4.365,34.094c-0.326,11.538-2.987,22.693-7.707,33.216
			c-7.884,17.575-20.101,33.977-24.703,52.843c-0.033-0.052-0.064-0.106-0.097-0.158c0.186-3.078,0.411-6.155,0.725-9.23
			c0.914-8.94,2.041-17.855,3.052-26.784c0.94-8.299,1.691-16.626,1.892-24.952c0.143-1.271,0.147-2.552,0.047-3.829
			c0.019-7.061-0.394-14.119-1.47-21.155c-2.174-14.213-6.679-28.022-13.103-40.88c0.115-1.803,0.516-3.601,0.928-5.348
			c0.624-2.645,1.238-5.254,2.049-7.851c1.586-5.075,3.199-10.127,3.674-15.451c0.48-5.375-0.043-10.903-1.469-16.106
			c-1.444-5.267-4.006-10.102-6.435-14.961c-2.927-5.859-5.574-11.926-7.507-18.191c-0.153-0.496-0.942-0.555-1.066,0
			c-2.487,11.156-4.873,22.238-4.195,33.743c0.642,10.889,3.35,21.532,7.197,31.709c0.106,0.281,0.223,0.561,0.331,0.841
			c-4.828-7.776-10.378-15.102-16.581-21.815c-8.516-9.216-18.337-17.479-29.141-23.977c0.218-0.71,0.347-1.447,0.259-2.182
			c-0.098-0.811-0.33-1.538-0.883-2.161c-0.415-0.467-0.968-0.833-1.576-0.886c0.003-0.065,0.015-0.129,0.017-0.194
			c0.144-4.591-2.037-8.767-4.9-12.214c-5.354-6.447-13.241-11.293-21.685-12.06c-4.695-0.426-9.125,0.788-13.467,2.387
			c-0.855,0.17-1.706,0.37-2.577,0.479c-1.318,0.164-2.658,0.184-3.983,0.113c-2.562-0.138-5.066-0.669-7.509-1.44
			c-0.575-0.182-0.905,0.548-0.46,0.911c0.457,0.373,0.917,0.74,1.374,1.112c-0.814-0.274-1.59-0.65-2.34-1.143
			c-0.486-0.32-0.994,0.194-0.817,0.694c0.514,1.453,1.494,2.448,2.593,3.397c-0.939-0.015-1.867-0.209-2.713-0.652
			c-0.572-0.3-1.118,0.292-0.75,0.834c0.731,1.076,1.619,2.044,2.628,2.863c0.011,0.036,0.019,0.07,0.037,0.104
			c-0.888,0.215-1.706,0.698-2.429,1.378c-0.247,0.233-0.244,0.777,0.16,0.863c1.551,0.331,3.046,0.832,4.43,1.616
			c0.688,0.389,1.351,0.825,2.024,1.24c0.628,0.388,1.301,0.678,1.93,1.059c2.351,3.803,5.343,7.143,8.526,10.273
			c3.273,3.219,6.816,6.285,10.827,8.554c6.601,3.735,15.347,5.332,21.993,0.856c0.885-0.596,1.712-1.32,2.456-2.132
			c0.264-0.177,0.507-0.374,0.748-0.573c0.597,0.801,1.904,1.038,2.838,0.746c0.956-0.298,1.764-0.982,2.329-1.809
			c9.177,5.71,17.692,12.363,25.328,20.099c9.754,9.881,18.012,21.203,24.488,33.483c3.561,6.753,6.551,13.802,8.961,21.044
			c-0.718-1.213-1.467-2.408-2.231-3.58c-3.926-6.026-7.889-12.097-12.344-17.749c-7.485-9.497-17.275-17.137-28.191-22.308
			c-6.127-2.902-12.604-5.018-19.269-6.266c-0.576-0.108-1.199,0.643-0.64,1.099c9.565,7.813,15.441,18.924,23.134,28.384
			c3.968,4.88,8.426,9.326,13.756,12.712c6.207,3.943,13.212,6.491,19.271,10.658c5.408,3.72,9.741,9.581,11.355,16.004
			c0.899,5.074,1.447,10.169,1.72,15.274c-1.123-2.334-2.576-4.51-4.283-6.39c-2.379-2.619-5.145-4.433-8.127-5.803
			c-4.451-3.728-8.221-8.265-12.056-12.592c-4.304-4.856-8.883-9.366-14.026-13.338c-10.465-8.08-23.037-14.706-36.384-15.918
			c-7.354-0.668-14.848,0.468-21.481,3.777c-0.623,0.311-0.491,1.147,0,1.488c5.801,4.033,10.847,9.053,15.012,14.756
			c3.901,5.341,6.578,11.505,10.807,16.614c2.181,2.635,4.846,4.709,7.765,6.471c3.07,1.853,6.277,3.508,9.66,4.716
			c7.214,2.576,14.86,2.182,22.331,1.194c4.292-0.568,8.521-1.469,12.788-2.186c1.087-0.183,2.186-0.316,3.284-0.414
			c1.012-0.091,2.16-0.349,3.168-0.231c0.129,0.015,0.258,0.046,0.386,0.072c0.514,0.372,1.015,0.766,1.497,1.189
			c3.356,2.943,5.674,6.571,7.218,10.74c0.869,2.346,1.599,4.702,1.956,7.18c0.363,2.522,0.392,4.897,0.283,7.443
			c-0.004,0.093,0.047,0.156,0.112,0.202c-0.246,4.438-0.619,8.874-1.079,13.304c-1.031,9.928-2.482,19.817-3.367,29.76
			c-0.162,1.816-0.319,3.646-0.467,5.481c-0.51-2.363-0.946-4.752-1.222-7.148c-0.729-6.334,0.111-12.629,0.149-18.969
			c0.036-6.064-0.781-12.12-2.151-18.023c-1.211-5.217-2.937-10.252-6.736-14.161c-3.897-4.009-9.067-6.747-12.324-11.377
			c-0.351-0.499-1.203-0.489-1.369,0.179c-1.698,6.82-2.904,13.682-2.872,20.735c0.029,6.477,1.22,12.823,3.536,18.87
			c4.145,10.822,11.125,20.198,16.826,30.199c2.074,3.64,3.974,7.366,5.589,11.216c-0.03,3.397,0.111,6.785,0.506,10.139
			c-0.094,0.67-0.188,1.34-0.281,2.011c-0.468,3.341,1.048,2.777,3.46,2.626c1.417-0.089,1.204-0.135,1.206-0.151
			c0.499,0.537,1.321,0.048,2.035,0.075c1.96,0.075,3.713-0.345,3.068-2.579c-0.393-1.359-0.723-2.727-1-4.1
			c0.685-5.258,4.482-9.703,8.851-12.52c2.61-1.683,5.449-2.903,8.326-4.046c3.275-1.301,6.604-2.543,9.962-3.613
			c6.326-2.018,12.954-3.333,19.067-5.965c5.655-2.435,10.296-6.418,13.949-11.34c4.507-6.072,6.988-13.084,9.955-19.954
			c0.143-0.332,0.057-0.785-0.357-0.878c-13.804-3.099-27.821,1.692-39.603,8.788c-11.302,6.806-21.174,16.45-27.148,28.297
			c-1.568,3.109-2.882,6.351-3.917,9.677c0.306-6.537,2.052-12.957,5.441-18.877c5.054-8.829,12.764-15.984,20.008-23
			c6.367-6.166,12.79-12.423,17.823-19.746c3.051-2.967,5.461-6.646,7.689-10.222c3.026-4.857,5.801-9.907,9.018-14.64
			c2.073-3.049,4.453-6.051,7.127-8.754c0.269,0.285,0.556,0.55,0.89,0.758c0.693,0.433,1.405,0.708,2.236,0.668
			c0.624-0.03,1.256-0.232,1.679-0.672c0.049,0.043,0.091,0.092,0.14,0.135c3.485,2.992,8.105,3.913,12.586,3.847
			c8.379-0.125,17.101-3.226,22.995-9.321c3.277-3.389,5.111-7.601,6.59-11.985c0.404-0.772,0.782-1.56,1.244-2.307
			c0.698-1.129,1.524-2.186,2.411-3.172c1.715-1.908,3.699-3.526,5.832-4.945c0.502-0.334,0.141-1.048-0.421-0.929
			c-0.576,0.122-1.152,0.25-1.728,0.373c0.724-0.462,1.504-0.83,2.359-1.105c0.554-0.178,0.472-0.896-0.028-1.072
			c-1.454-0.511-2.843-0.372-4.272-0.112c0.601-0.722,1.335-1.323,2.21-1.703c0.592-0.257,0.474-1.054-0.179-1.107
			c-1.296-0.106-2.607-0.021-3.879,0.251c-0.035-0.014-0.067-0.029-0.105-0.037c0.389-0.827,0.527-1.767,0.451-2.756
			c-0.026-0.338-0.452-0.677-0.772-0.417c-1.231,1-2.559,1.85-4.037,2.436c-0.735,0.291-1.49,0.535-2.236,0.798
			c-0.696,0.246-1.344,0.588-2.036,0.839c-4.437-0.555-8.915-0.32-13.348,0.195c-4.56,0.53-9.17,1.365-13.454,3.065
			c-7.05,2.798-13.78,8.607-14.464,16.59c-0.091,1.063-0.046,2.161,0.119,3.25c-0.027,0.317-0.027,0.629-0.023,0.942
			c-0.998-0.038-2.003,0.832-2.362,1.742c-0.472,1.197-0.309,2.609,0.252,3.742c0.087,0.175,0.186,0.348,0.282,0.521
			c-5.581,4.933-10.192,11.249-14.438,17.462c1.919-6.366,3.06-12.993,3.947-19.575
			C304.388,322.234,305.069,315.665,306.031,309.131z M326.406,272.316c9.181-6.722,20.52-10.871,31.954-10.93
			c6.224-0.032,13.398,0.901,18.725,4.398c-6.91,8.56-14.856,17.439-25.938,20.176c-6.187,1.528-12.521,1.149-18.829,1.058
			c-6.016-0.086-12.724-0.129-18.26,2.534c-0.104,0.05-0.205,0.11-0.308,0.163c0.375-0.481,0.745-0.968,1.145-1.426
			c2.388-2.736,5.009-5.205,8.078-7.164c7.111-4.54,15.663-6.639,23.944-7.723c0.082-0.011,0.086-0.139,0-0.132
			c-8.634,0.785-17.201,2.422-24.914,6.556c-3.155,1.691-6.214,3.75-8.746,6.302C316.815,280.771,321.349,276.018,326.406,272.316z
			 M314.707,240.389c2.367-7.552,5.687-14.861,10.248-21.348c4.329-6.157,9.484-11.656,14.829-16.933
			c5.582-5.511,11.295-10.86,16.679-16.562c-1.588,7.265-2.153,14.695-3.441,22.016c-1.349,7.67-3.912,15.03-7.475,21.951
			c-3.569,6.934-8.31,12.929-13.399,18.793c-5.02,5.784-10.411,11.335-14.84,17.604c-0.181,0.257-0.361,0.519-0.54,0.779
			c2.16-4.791,4.469-9.506,7.003-14.115c2.81-5.112,5.829-10.122,8.944-15.054c3.181-5.036,6.495-9.978,8.997-15.402
			c2.687-5.825,4.465-11.954,5.444-18.29c0.034-0.219-0.296-0.318-0.338-0.093c-1.094,5.831-3.069,11.51-5.763,16.793
			c-2.738,5.37-6.494,9.937-10.083,14.739c-7.088,9.484-12.802,19.922-17.555,30.752c-1.31,2.986-2.523,6.035-3.429,9.171
			c0.163-4.661,0.228-9.33,0.235-13.998C311.185,254.147,312.58,247.177,314.707,240.389z M293.193,212.811
			c-0.002-0.003-0.001-0.007-0.003-0.011c0.001,0.004,0.003,0.007,0.004,0.011C293.194,212.811,293.193,212.811,293.193,212.811z
			 M289.243,209.092c-0.908-1.672-1.49-3.508-1.812-5.378c-0.656-3.8-0.158-7.869,1.511-11.344c0.042-0.087-0.093-0.176-0.148-0.091
			c-2.359,3.59-3.366,7.876-2.783,12.139c0.27,1.967,0.869,3.88,1.748,5.659c-0.385-0.515-0.755-1.05-1.1-1.624
			c-1.786-2.976-2.532-6.635-2.282-10.079c0.588-8.097,5.855-14.715,11.747-19.864c2.046-1.788,4.171-3.516,6.409-5.073
			c1.905-0.737,3.637-1.906,5.319-3.038c0.959-0.646,1.919-1.317,2.815-2.05c0.631-0.516,1.271-1.099,1.443-1.927
			c0.044-0.209-0.284-0.313-0.361-0.109c-0.345,0.906-1.403,1.311-2.167,1.802c-0.194,0.125-0.389,0.249-0.584,0.373
			c0.118-0.097,0.244-0.18,0.356-0.287c0.647-0.618,1.217-1.292,1.736-2.022c0.75-1.057,1.364-2.207,1.634-3.459
			c0.432,0.804,0.399,1.822,0.01,2.682c-0.013,0.028-0.012,0.054-0.02,0.082c-0.327,0.691-0.596,1.425-0.946,2.068
			c-0.742,1.361-1.616,2.642-2.606,3.836c-2.209,2.665-4.904,4.879-7.63,6.99c-0.037,0.029,0.003,0.085,0.042,0.06
			c3.06-1.988,6.185-3.899,8.808-6.463c1.137-1.111,2.171-2.337,2.988-3.704c0.609-1.018,1.271-2.173,1.296-3.37
			c0.535-0.567,1.106-1.089,1.712-1.575c-0.225,0.881-0.347,1.781-0.311,2.717c0.005,0.127,0.058,0.216,0.13,0.282
			c-0.592,1.028-1.033,2.131-1.474,3.236c-1.154,2.895-1.902,5.918-2.96,8.844c-0.082,0.228,0.258,0.386,0.347,0.156
			c1.04-2.678,2.511-5.137,3.84-7.678c0.638-1.22,1.257-2.452,2.008-3.609c0.19-0.292,0.387-0.581,0.581-0.871
			c-0.108,0.367-0.207,0.738-0.281,1.116c-0.109,0.552,0.584,0.769,0.925,0.417c0.348-0.359,0.689-0.726,1.034-1.089
			c-0.613,1.814-1.116,3.67-1.418,5.556c-0.183,1.148-0.331,2.438-0.31,3.714c-0.918-1.973-1.746-3.98-1.259-6.172
			c0.038-0.169-0.213-0.202-0.26-0.043c-0.863,2.934-0.023,5.99,1.219,8.678c0.696,1.507,1.37,2.946,1.642,4.598
			c0.256,1.555,0.14,3.126,0.331,4.681c0.011,0.094,0.141,0.118,0.181,0.03c0.04-0.085,0.06-0.179,0.095-0.266
			c0.029,0.917,0.016,1.836-0.077,2.761c-0.381,3.772-1.719,7.357-3.674,10.592c-1.993,3.298-4.609,6.258-7.573,8.712
			c-3.244,2.685-7.131,4.998-11.402,5.422c-1.258,0.125-2.542,0.022-3.79-0.25c1.005-0.109,2.023-0.395,2.963-0.726
			c3.015-1.063,5.847-2.68,8.323-4.698c4.939-4.026,8.354-9.937,10.658-15.792c0.038-0.096-0.105-0.161-0.147-0.066
			c-2.413,5.456-6.014,10.217-10.705,13.908c-3.41,2.684-7.438,4.979-11.772,5.324c-0.029-0.132-0.077-0.252-0.129-0.379
			c-0.12-0.29-0.225-0.612-0.321-0.911c-0.216-0.682-0.302-1.427-0.412-2.131c-0.23-1.472-0.255-2.964-0.076-4.442
			c0.032-0.264-0.383-0.425-0.472-0.143c-0.555,1.745-0.902,3.646-0.804,5.484c0.024,0.454,0.075,0.907,0.141,1.356
			c0.001,0.007,0.001,0.013,0.002,0.02C290.429,210.928,289.794,210.107,289.243,209.092z M308.272,113.215
			c3.646,1.386,6.967,3.619,9.739,6.351c6.014,5.925,9.212,14.108,9.546,22.488c0.181,4.518-0.503,8.974-1.699,13.312
			c-4.091-4.598-11.024-5.498-15.809-9.273c-2.894-2.283-5.093-5.274-6.97-8.416c-1.954-3.272-3.256-7.001-5.455-10.108
			c-0.125-0.177-0.303-0.249-0.471-0.24c-0.916-2.099-2.487-3.73-3.164-5.953c-0.684-2.248-1.464-4.363-2.875-6.272
			c-0.246-0.333-0.51-0.647-0.783-0.947c1.736,1.052,3.485,2.086,5.166,3.233c0.818,1.017,1.692,1.99,2.498,3.018
			c1.289,1.643,2.425,3.415,3.529,5.186c2.169,3.478,3.918,7.259,5.648,10.968c0.076,0.163,0.359,0.047,0.294-0.124
			c-1.514-3.948-3.064-7.834-4.954-11.62c-0.698-1.399-1.504-2.739-2.391-4.025c1.237,0.974,2.452,1.977,3.624,3.029
			c4.942,4.432,9.544,9.479,13.151,15.063c0.076,0.118,0.264,0.01,0.189-0.111c-3.542-5.785-7.512-11.168-12.353-15.939
			c-2.398-2.363-4.925-4.591-7.618-6.613c-1.885-1.415-3.867-2.874-5.95-4.085c1.667-0.246,3.331-0.508,4.995-0.765
			c0.524-0.081,1.052-0.157,1.578-0.234C301.328,111.383,304.919,111.94,308.272,113.215z M296.614,72.78
			c2.498-2.511,5.564-4.349,8.64-6.061c6.964-3.875,14.411-6.933,22.088-9.073c4.13-1.152,8.34-2.034,12.586-2.634
			c-5.001,9.701-6.452,20.65-10.605,30.683c-4.006,9.678-11.604,18.211-21.99,21.003c-3.443,0.926-7.013,1.34-10.535,1.841
			c-2.807,0.399-5.617,0.799-8.417,1.248c1.014-0.822,1.945-1.753,2.816-2.731c1.216-1.365,2.419-2.778,3.303-4.378
			c0.074-0.039,0.138-0.101,0.173-0.19c1.089-2.777,3.484-5.23,5.685-7.168c0.903-0.796,1.843-1.546,2.788-2.288
			c0.124-0.04,0.242-0.089,0.369-0.122c1.219-0.314,2.49-0.374,3.743-0.393c2.976-0.046,5.951,0.485,8.925,0.14
			c0.165-0.019,0.172-0.276,0-0.263c-3.261,0.244-6.34-0.899-9.564-1.124c-0.402-0.028-0.812-0.026-1.223-0.01
			c0.936-0.738,1.865-1.486,2.757-2.28c5.371-4.788,9.991-10.374,13.967-16.36c0.094-0.142-0.132-0.271-0.227-0.133
			c-4.372,6.337-9.889,11.839-16.101,16.38c-0.305,0.223-0.619,0.436-0.928,0.654c0.421-0.743,0.814-1.499,1.135-2.297
			c1.002-2.488,1.59-5.101,2.029-7.741c0.023-0.137-0.182-0.198-0.212-0.058c-0.538,2.556-1.584,4.969-2.9,7.22
			c-0.636,1.088-1.279,2.182-1.992,3.222c-0.413,0.603-0.843,1.216-1.222,1.855c-1.341,0.943-2.655,1.92-3.859,3.023
			c-0.639,0.585-1.205,1.187-1.702,1.814c0.087-1.04,0.127-2.083,0.173-3.107c0.114-2.522,0.147-5.118-0.534-7.572
			c-0.579-2.087-1.738-3.813-3.25-5.316C293.12,77.555,294.407,74.999,296.614,72.78z M237.241,83.639
			c0.934-4.628,1.512-9.33,2.74-13.9c0.688-2.559,1.413-5.311,3.185-7.364c1.448-1.678,3.475-2.736,5.579-3.344
			c2.155-0.622,4.393-0.775,6.625-0.804c1.779-0.024,3.59,0.092,5.32,0.534c-0.337,0.66-0.391,1.488-0.498,2.205
			c-0.119,0.798-0.221,1.596-0.362,2.391c-0.291,1.641-0.622,3.283-1.041,4.896c-0.858,3.299-2.022,6.718-3.655,9.717
			c-0.13,0.24,0.227,0.45,0.366,0.214c0.941-1.59,1.912-3.116,2.71-4.788c0.74-1.55,1.403-3.138,1.979-4.757
			c0.599-1.683,1.1-3.386,1.462-5.136c0.258-1.249,0.743-2.918,0.507-4.275c0.026,0.01,0.053,0.015,0.078,0.025
			c0.497,0.197,0.947,0.442,1.375,0.71c-0.005,0.064-0.004,0.128,0.016,0.188c0.152,0.443,0.076,1.202,0.058,1.737
			c-0.026,0.771-0.065,1.544-0.118,2.314c-0.108,1.563-0.314,3.127-0.693,4.648c-0.033,0.13,0.17,0.23,0.227,0.096
			c0.717-1.68,1.331-3.373,1.77-5.147c0.207-0.837,0.318-1.706,0.399-2.565c0.937,0.853,1.784,1.82,2.712,2.755
			c1.537,1.547,3.388,2.643,5.378,3.507c1.939,0.841,3.981,1.46,5.874,2.402c2.139,1.064,3.67,2.622,5.156,4.461
			c1.481,1.833,2.925,3.506,4.728,5.035c0.74,0.628,1.499,1.255,2.209,1.926c0.052,0.145,0.164,0.244,0.307,0.29
			c0.802,0.791,1.522,1.655,2.049,2.669c1.135,2.183,1.338,4.694,1.325,7.118c-1.036-0.082-2.255,0.268-3.255,0.507
			c-1.007,0.24-1.996,0.537-2.973,0.878c-1.99,0.694-3.892,1.611-5.741,2.618c-0.206,0.112-0.064,0.476,0.163,0.388
			c1.924-0.748,3.917-1.282,5.934-1.71c1.014-0.215,2.039-0.393,3.065-0.544c0.894-0.132,1.895-0.15,2.782-0.374
			c-0.011,0.577-0.035,1.154-0.064,1.734c-0.904-0.079-2.093,0.218-2.621,0.296c-1.98,0.292-3.943,0.762-5.856,1.349
			c-3.706,1.137-7.204,2.918-10.534,4.886c-0.195,0.115-0.021,0.412,0.177,0.303c2.979-1.631,6.103-2.697,9.371-3.586
			c1.551-0.422,3.125-0.764,4.71-1.027c0.836-0.139,1.676-0.251,2.517-0.35c0.398-0.047,0.797-0.089,1.196-0.125
			c0.228-0.021,0.457-0.04,0.685-0.057c0.09,0.013,0.16,0.02,0.216,0.023c-0.099,0.946-0.232,1.885-0.466,2.793
			c-0.644,2.506-2.199,4.439-3.892,6.33c-1.731,1.933-3.601,3.801-6.077,4.734c-2.766,1.042-5.878,1.234-8.803,1.407
			c-3.069,0.181-6.143,0.021-9.202-0.236c-4.726-0.397-11.9-0.854-14.461,4.214c-0.398,0.789,0.518,1.423,1.171,0.904
			c1.94-1.539,4.129-2.648,6.592-3.032c3.039-0.473,6.142-0.086,9.196-0.038c2.829,0.045,5.671-0.091,8.488-0.357
			c1.267-0.119,2.554-0.251,3.824-0.465c1.306,0.09,2.619,0.066,3.921,0.279c1.973,0.324,3.472,1.406,4.617,3.015
			c0.84,1.181,1.43,2.439,1.909,3.762c-0.06-0.046-0.121-0.098-0.18-0.141c-1.484-1.067-3.271-1.563-5.06-1.805
			c-4.079-0.553-8.134-0.22-12.17,0.489c-0.225,0.039-0.126,0.37,0.093,0.338c3.661-0.526,7.451-0.209,11.04,0.649
			c1.544,0.369,3.131,0.804,4.492,1.649c1.164,0.723,1.963,1.906,3.079,2.651c0.04,0.027,0.086,0.036,0.131,0.043
			c0.454,0.908,0.984,1.767,1.577,2.675c2.096,3.212,2.476,7.177,1.556,10.852c-0.47,1.876-1.234,3.663-2.195,5.338
			c-0.805,1.403-2.088,2.715-2.152,4.416c-0.054,1.429,0.774,2.668,1.348,3.914c0.881,1.912,0.531,3.683-0.907,5.218
			c-0.635,0.678-1.379,1.208-2.162,1.686c0.008-0.087,0.014-0.176-0.01-0.275c-0.369-1.513-1.394-2.856-2.516-3.908
			c-1.22-1.143-2.673-2.029-4.072-2.935c-0.226-0.146-0.413,0.2-0.207,0.354c1.277,0.95,2.499,1.947,3.507,3.189
			c0.895,1.104,1.448,2.34,1.736,3.727c0.056,0.271,0.215,0.431,0.408,0.512c-0.417,0.232-0.835,0.463-1.244,0.703
			c-0.052,0.031-0.099,0.066-0.15,0.098c-0.064-0.749-0.422-1.493-0.745-2.155c-0.436-0.895-0.964-1.75-1.541-2.562
			c-1.188-1.672-2.585-3.148-4.176-4.442c-3.549-2.889-7.773-4.745-11.929-6.563c-0.16-0.07-0.301,0.152-0.14,0.24
			c3.787,2.075,7.539,4.325,10.723,7.264c1.378,1.272,2.681,2.664,3.764,4.198c0.548,0.776,1.043,1.59,1.472,2.438
			c0.393,0.777,0.675,1.829,1.3,2.452c-0.885,0.673-1.693,1.429-2.452,2.282c-1.161,1.303-2.227,2.726-3.711,3.686
			c-1.323,0.856-2.78,1.428-4.34,1.661c-3.286,0.491-6.63-0.553-8.956-2.939c-2.6-2.667-3.8-6.327-5.34-9.636
			c-1.596-3.43-3.67-6.495-6.621-8.881c0.493-0.819,1.157-1.509,1.722-2.277c2.226-3.023,1.569-7.038-1.266-9.437
			c-0.336-0.285-0.697-0.534-1.065-0.771c-1.164-1.54-2.668-2.786-4.479-3.455c0.152,0.004,0.304,0.001,0.456,0.007
			c3.371,0.136,7.017,1.041,9.454,3.503c0.129,0.131,0.304-0.06,0.196-0.197c-2.186-2.787-5.322-4.373-8.759-5.044
			c-0.472-0.092-0.944-0.165-1.418-0.228c1.828-0.193,3.652-0.24,5.558,0.042c6.31,0.935,12.442,4.286,16.365,9.364
			c0.129,0.166,0.416,0.012,0.29-0.17c-3.485-5.033-8.431-8.689-14.297-10.498c-2.096-0.647-4.302-1.035-6.509-1.168
			c1.087-0.315,2.179-0.619,3.292-0.85c5.825-1.208,12.348,0.582,16.838,4.448c0.148,0.128,0.364-0.082,0.217-0.217
			c-4.003-3.706-9.087-5.988-14.575-6.125c-3.013-0.075-6.008,0.45-8.968,0.96c-1.558,0.269-3.098,0.526-4.684,0.549
			c-0.797,0.012-1.584-0.035-2.366-0.188c-0.01-0.002-0.02-0.005-0.03-0.007c0.174-0.098,0.355-0.184,0.521-0.295
			c0.682-0.457,1.333-0.979,1.963-1.505c1.207-1.009,2.314-2.164,3.302-3.387c0.204-0.252-0.115-0.591-0.362-0.362
			c-1.111,1.031-2.325,1.893-3.657,2.615c-1.225,0.664-2.535,1.173-3.835,1.667c-0.013-0.088-0.032-0.175-0.047-0.262
			c0.218-0.019,0.431-0.128,0.581-0.319c0.214-0.272,0.283-0.655,0.451-0.959c0.658-1.187,1.662-2.139,2.722-2.968
			c0.738-0.577,1.5-1.164,2.174-1.83c0.133-0.105,0.275-0.2,0.406-0.308c2.053-1.686,3.917-3.632,5.666-5.627
			c3.483-3.975,7.183-8.305,12.091-10.544c0.179-0.082,0.051-0.393-0.135-0.321c-4.945,1.916-8.694,5.347-12.603,8.815
			c-1.273,1.129-2.527,2.285-3.824,3.39c1.932-2.973,3.379-6.322,5.218-9.34c3.438-5.642,8.193-11.987,15.095-13.328
			c0.104-0.02,0.082-0.194-0.025-0.187c-5.646,0.399-10.086,4.247-13.691,8.298c-2.11,2.371-3.828,4.956-5.382,7.717
			c-1.316,2.338-2.582,4.748-4.286,6.833c-1.013,0.967-2.036,1.93-2.991,2.949c-0.17,0.126-0.338,0.255-0.516,0.371
			c-0.503,0.329-1.031,0.622-1.582,0.864c0.392-0.485,0.754-0.995,1.044-1.545c0.771-1.46,1.228-3.059,1.311-4.708
			c0.009-0.181-0.274-0.219-0.316-0.043c-0.358,1.491-1.018,2.905-1.951,4.124c-0.442,0.577-0.942,1.117-1.467,1.618
			c-0.283,0.27-0.571,0.535-0.881,0.775c-0.216,0.167-0.449,0.307-0.64,0.492c-0.265-0.153-0.535-0.3-0.811-0.44
			c0.003-0.007,0.006-0.013,0.009-0.02c0.162-0.359,0.299-0.723,0.435-1.092c0.294-0.802,0.599-1.599,0.903-2.397
			c0.302-0.791,0.668-1.603,0.964-2.43c0.124-0.073,0.249-0.144,0.37-0.221c0.948-0.601,1.96-1.299,2.755-2.148
			c0.095-0.018,0.191-0.054,0.288-0.126c1.641-1.229,2.946-3.284,3.639-5.199c0.313-0.866,0.489-1.821,0.426-2.744
			c-0.079-1.159-0.602-2.083-0.958-3.161c-0.379-1.149,0.111-1.947,0.462-3.017c0.286-0.873,0.366-1.802,0.257-2.712
			c-0.207-1.726-1.08-3.375-2.482-4.424c-1.294-0.968-2.953-1.317-4.546-1.121C237.025,85.26,237.142,84.449,237.241,83.639z
			 M243.137,144.408c-0.778-0.989-1.015-2.268-1.345-3.455c-0.33-1.183-0.642-2.371-1.021-3.54
			c-0.222-0.685-0.512-1.342-0.838-1.982c0.9,0.625,1.786,1.287,2.634,1.976c1.962,1.593,3.927,3.479,5.261,5.638
			c0.189,0.305,0.647,0.036,0.48-0.28c-0.624-1.181-1.212-2.385-1.935-3.511c-0.727-1.132-1.554-2.2-2.446-3.207
			c-0.525-0.593-1.087-1.129-1.671-1.641c0.109,0.048,0.217,0.097,0.326,0.146c1.7,0.768,3.321,1.581,4.598,2.978
			c0.154,0.168,0.462-0.059,0.322-0.248c-1.109-1.49-2.48-2.806-3.968-3.913c-0.43-0.32-0.87-0.619-1.319-0.906
			c0.1,0.011,0.201,0.019,0.301,0.028c-0.059,0.053-0.065,0.155,0.036,0.15c3.2-0.158,6.786-0.063,9.685,1.482
			c1.048,0.818,1.978,1.784,2.914,2.728c0.993,1.738,1.163,3.867,0.005,5.7c-0.423,0.67-0.876,1.312-1.217,2.031
			c-0.369,0.779-0.502,1.616-0.746,2.437c-0.512,1.722-1.768,3.047-3.674,2.99c-0.696-0.021-1.34-0.365-2.038-0.359
			c-0.725,0.007-1.307,0.494-2.001,0.634c-0.761,0.153-1.434-0.064-2.023-0.455c-0.017-0.056-0.035-0.112-0.083-0.153
			c-0.364-0.316-0.718-0.612-1.057-0.909c-0.231-0.285-0.441-0.582-0.624-0.872c-0.501-0.796-0.961-1.645-1.177-2.568
			c-0.207-0.885-0.134-1.828-0.256-2.729c-0.15-1.106-0.503-2.251-0.945-3.351c-0.003-0.091-0.004-0.182-0.009-0.274
			c0.556,1.009,1.139,2.004,1.712,3.004c0.54,0.941,1.072,1.928,1.88,2.67C243.063,144.796,243.269,144.575,243.137,144.408z
			 M236.491,128.078c-1.021,1.343-2.708,2.226-4.359,2.47c-1.449,0.214-2.944-0.035-4.223-0.668
			c-0.034-0.017-0.067-0.038-0.102-0.051c-0.745-0.384-1.412-0.902-1.95-1.536c-0.053-0.099-0.118-0.188-0.201-0.256
			c-0.538-0.712-0.925-1.551-1.083-2.509c-0.274-1.66,0.343-3.56,1.241-4.948c1.015-1.567,2.654-2.631,4.537-2.708
			c1.084-0.045,2.172,0.276,3.157,0.707c1.018,0.445,2.094,0.969,2.794,1.854c0.714,0.902,0.989,1.977,1.143,3.094
			c0.023,0.548,0.001,1.098-0.042,1.644C237.323,126.21,237.136,127.23,236.491,128.078z M236.998,130.276
			c-0.032-0.01-0.063-0.026-0.095-0.035c0.002-0.002,0.005-0.004,0.008-0.006c0.028-0.026,0.054-0.056,0.082-0.082
			C236.995,130.194,236.99,130.235,236.998,130.276z M236.601,132.006c-0.003,0.005-0.003,0.01-0.005,0.015
			c-0.002-0.006-0.005-0.012-0.007-0.018C236.593,132.004,236.597,132.005,236.601,132.006z M233.14,133.721
			c-0.006,0.025-0.014,0.049-0.017,0.076c-0.023-0.078-0.039-0.159-0.065-0.236C233.085,133.613,233.112,133.668,233.14,133.721z
			 M230.151,133.263c0-0.001-0.001-0.002-0.001-0.003c0.03-0.064,0.061-0.128,0.091-0.192c0.023,0.095,0.051,0.188,0.069,0.286
			c0.145,0.788,0.335,1.577,0.361,2.381c0.031,0.969-0.133,1.916-0.377,2.847C230.512,136.814,230.474,135.014,230.151,133.263z
			 M228.403,132.284c-0.026,0.051-0.054,0.102-0.079,0.155c0.002-0.045-0.002-0.087-0.001-0.132
			c0.012-0.001,0.023-0.003,0.035-0.005C228.383,132.293,228.383,132.292,228.403,132.284z M217.746,134.758
			c1.333-0.323,2.613-0.735,3.819-1.399c0.313-0.173,0.617-0.365,0.913-0.571c-0.157,0.267-0.312,0.534-0.462,0.791
			c-0.747,1.277-1.43,2.614-1.984,3.984c-1.083,2.678-1.979,5.509-3.547,7.954c-0.13,0.202,0.169,0.433,0.333,0.257
			c1.957-2.098,3.741-4.366,5.212-6.831c0.668-1.118,1.286-2.262,1.928-3.396c-0.115,0.885-0.24,1.762-0.449,2.646
			c-0.597,2.521-1.445,5.139-3.043,7.213c-0.259,0.337,0.276,0.69,0.563,0.434c2.091-1.869,3.765-3.877,4.767-6.526
			c0.275-0.726,0.463-1.509,0.593-2.299c0.345-0.555,0.705-1.102,1.022-1.674c0.139-0.251,0.272-0.537,0.397-0.835
			c-0.008,0.331,0.004,0.663,0.027,0.997c0.053,0.744,0.068,1.482,0.163,2.223c0.075,0.581,0.168,1.16,0.258,1.74
			c-0.32,2.039-0.883,4.02-1.976,5.873c-0.942,1.597-2.25,2.969-3.835,3.94c-1.887,1.157-4.115,1.695-6.207,2.363
			c-0.873,0.279-2.01,0.883-2.92,0.933c-0.7,0.038-0.75-0.634-0.957-1.186c-0.2-0.532-0.39-1.067-0.566-1.608
			c-0.665-2.038-1.054-4.106-0.972-6.258c0.143-3.782,1.83-7.175,5.318-8.847c0.555-0.266,1.187-0.528,1.846-0.806
			c-0.144,0.069-0.282,0.15-0.429,0.21C217.152,134.247,217.295,134.867,217.746,134.758z M223.49,121.121
			c0.061,0.015,0.122,0.026,0.184,0.035c-0.021,0.06-0.042,0.121-0.061,0.182C223.576,121.263,223.532,121.192,223.49,121.121z
			 M232.222,114.171c0.593-0.549,1.205-1.082,1.827-1.585c0.612-0.494,1.299-0.875,1.982-1.26c-0.354,0.648-0.762,1.272-1.125,1.886
			c-0.396,0.67-0.792,1.34-1.196,2.005c-0.203,0.334-0.403,0.664-0.581,1.012c-0.016,0.032-0.035,0.064-0.053,0.096
			c-0.27-0.096-0.543-0.175-0.82-0.242C232.269,115.45,232.195,114.81,232.222,114.171z M236.43,87.12
			c1.156-0.221,2.388-0.064,3.431,0.478c1.489,0.775,2.438,2.366,2.579,4.02c0.064,0.752-0.046,1.496-0.322,2.197
			c-0.319,0.81-0.794,1.546-0.863,2.436c-0.158,2.023,1.37,3.646,0.871,5.725c-0.286,1.192-0.917,2.152-1.586,3.095
			c-0.091,0.055-0.169,0.136-0.212,0.247c-0.027,0.071-0.069,0.124-0.099,0.191c-0.318,0.444-0.631,0.895-0.914,1.367
			c-1.28,1.296-3.212,1.805-4.836,2.714c-0.359,0.201-0.701,0.43-1.033,0.672c0.302-0.758,0.577-1.52,0.755-2.323
			c0.222-1.007,0.357-2.035,0.52-3.053c0.025-0.155-0.205-0.225-0.24-0.066c-0.157,0.711-0.343,1.412-0.553,2.106
			c0.055-0.577,0.07-1.143,0.019-1.672c-0.194-1.978-0.829-3.896-0.66-5.904c0.181-2.166,0.946-4.201,2.334-5.876
			c0.095-0.114-0.062-0.278-0.165-0.165c-2.78,3.021-4.384,6.779-3.957,10.916c0.111,1.075,0.328,2.082,0.57,3.132
			c0.302,1.308,0.072,2.631-0.366,3.886c-0.261,0.75-0.861,1.752-1.22,2.749c-0.099,0.189-0.2,0.377-0.295,0.569
			c-0.027,0.055-0.054,0.127-0.082,0.201c-0.022-0.063-0.059-0.121-0.077-0.186c-0.216-0.763-0.27-1.58-0.307-2.369
			c-0.089-1.871,0.15-3.722,0.754-5.496c0.062-0.181-0.215-0.25-0.282-0.078c-0.315,0.811-0.582,1.639-0.816,2.476
			c-0.093-0.481-0.249-0.953-0.518-1.438c-0.757-1.363-2.117-2.379-3.038-3.635c-0.926-2.195-1.425-4.502-0.945-7.006
			c0.567-2.962,2.517-6.343,5.617-7.175c0.685-0.184,1.397-0.241,2.052-0.53c0.846-0.374,1.438-1.102,2.22-1.578
			c0.31-0.189,0.645-0.332,0.988-0.447C235.997,87.305,236.234,87.251,236.43,87.12z M166.129,101.672
			c0.01-0.191,0.034-0.381,0.052-0.571c0.113,0.05,0.239,0.08,0.389,0.063c1.959-0.226,3.887-0.665,5.843-0.912
			c1.951-0.246,3.905-0.285,5.865-0.142c0.239,0.017,0.227-0.337,0-0.366c-1.985-0.253-3.981-0.45-5.978-0.584
			c-1.956-0.131-3.935-0.165-5.869,0.207c0.089-0.451,0.193-0.9,0.304-1.348c0.591,0.052,1.312-0.199,1.812-0.283
			c0.753-0.126,1.509-0.235,2.269-0.301c1.595-0.138,3.185-0.192,4.782-0.069c0.363,0.028,0.345-0.51,0-0.556
			c-1.471-0.193-2.947-0.389-4.428-0.496c-1.307-0.094-2.635-0.189-3.949-0.147c0.269-0.989,0.535-1.978,0.729-2.977
			c0.24-1.238,0.395-2.501,0.347-3.763c-0.069-1.789-0.516-3.532-0.68-5.31c-0.092-0.999-0.046-2.037,0.121-3.064
			c1.544-0.136,3.063-0.432,4.613-0.547c1.577-0.117,3.157-0.178,4.738-0.143c0.113,0.003,0.143-0.179,0.027-0.201
			c-1.549-0.292-3.106-0.552-4.672-0.73c-1.397-0.159-2.819-0.349-4.228-0.342c0.11-0.332,0.23-0.659,0.367-0.979
			c0.152,0.099,0.328,0.173,0.557,0.173c1.452,0.001,2.946,0.029,4.388-0.138c1.262-0.146,2.505-0.293,3.778-0.3
			c2.726-0.016,5.493,0.26,8.007,1.379c0.161,0.071,0.303-0.161,0.14-0.24c-2.395-1.161-4.938-1.812-7.568-2.167
			c-1.354-0.183-2.712-0.346-4.067-0.515c-1.366-0.17-2.774-0.155-4.157-0.137c1.064-1.542,2.518-2.778,4.351-3.399
			c2.729-0.925,5.736-0.186,8.533-0.904c2.391-0.614,4.615-1.905,6.367-3.64c1.793-1.776,2.699-3.922,3.915-6.077
			c0.209-0.371,0.44-0.703,0.687-1.013c0.073,0.102,0.168,0.186,0.288,0.237c1.45,0.619,2.932,1.122,4.357,1.806
			c1.415,0.68,2.765,1.429,4.068,2.306c0.333,0.225,0.62-0.3,0.31-0.53c-1.255-0.933-2.518-1.866-3.811-2.746
			c-1.195-0.814-2.419-1.676-3.71-2.34c0.244-0.129,0.494-0.252,0.779-0.341c0.205-0.064,0.418-0.104,0.628-0.154
			c0.767,0.528,1.669,0.802,2.517,1.181c0.922,0.412,1.862,0.775,2.777,1.202c1.894,0.885,3.668,1.995,5.345,3.24
			c3.512,2.608,6.476,5.807,9.071,9.315c0.241,0.326,0.794,0.021,0.556-0.325c-2.56-3.718-5.274-7.482-8.731-10.426
			c-1.64-1.397-3.463-2.629-5.403-3.571c-0.889-0.432-1.857-0.847-2.829-1.076c0.271-0.024,0.544-0.047,0.811-0.074
			c6.535-0.665,13.106-0.999,19.496,0.773c1.542,0.428,3.092,0.811,4.697,0.885c1.578,0.072,3.186,0.003,4.664,0.668
			c2.328,1.048,3.552,3.522,4.263,5.849c0.835,2.729,1.018,5.621,1.149,8.456c0.165,3.567,0.107,7.183-0.207,10.739
			c-0.019,0.215,0.043,0.391,0.135,0.548c-0.142,0.075-0.296,0.129-0.43,0.216c-1.048,0.683-1.687,1.609-2.98,1.882
			c-3.599,0.76-6.491,2.766-7.782,6.331c-1.397,3.86,0.075,8.681,2.777,11.764c0.107,0.198,0.21,0.396,0.319,0.595
			c0.478,0.874,0.96,1.721,1.304,2.663c0.423,1.158,0.432,2.392,0.6,3.601c0.017,0.125,0.034,0.266,0.053,0.41
			c-0.344-0.435-0.643-0.906-0.899-1.399c-0.877-1.688-1.552-3.527-1.73-5.428c-0.023-0.249-0.394-0.259-0.395,0
			c-0.009,2.086,0.16,4.158,0.793,6.152c-0.387-0.355-0.782-0.692-1.099-1.024c-1.031-1.082-1.983-2.213-2.788-3.475
			c-1.723-2.704-2.559-5.627-3.195-8.738c-0.669-3.269-1.138-6.48-2.597-9.521c-1.382-2.88-3.367-5.39-5.436-7.802
			c-0.15-0.174-0.384,0.074-0.248,0.248c2.141,2.739,4.13,5.718,5.309,9.01c1.235,3.448,0.775,7.025,1.424,10.56
			c0.52,2.831,1.695,5.546,3.318,7.919c0.8,1.169,1.7,2.306,2.736,3.276c0.307,0.287,0.67,0.63,1.064,0.954
			c0.082,0.106,0.175,0.201,0.26,0.305c-0.746-0.371-1.48-0.765-2.138-1.357c-1.201-1.08-2.163-2.39-2.947-3.798
			c-1.84-3.305-2.634-7.066-4.103-10.532c-2.547-6.008-7.26-10.632-12.901-13.793c-3.196-1.791-6.604-2.788-10.102-3.794
			c-0.109-0.031-0.153,0.134-0.047,0.169c3.179,1.039,6.194,2.714,9.05,4.443c2.861,1.732,5.531,3.843,7.783,6.322
			c2.359,2.596,4.104,5.573,5.305,8.863c1.24,3.399,2.117,7.003,4.051,10.101c0.682,1.092,1.667,2.401,2.836,3.48
			c0.082,0.107,0.167,0.212,0.252,0.317c-1.362-0.859-2.542-2.036-3.632-3.39c-2.269-2.816-4.198-5.872-6.369-8.758
			c-1.958-2.603-3.891-5.207-6.245-7.474c-2.236-2.153-4.785-3.846-7.62-5.112c-0.178-0.08-0.335,0.183-0.155,0.265
			c6.677,3.039,10.479,9.724,14.256,15.63c1.892,2.96,3.769,6.044,6.193,8.609c0.644,0.682,1.356,1.298,2.126,1.827
			c0.168,0.318,0.359,0.626,0.569,0.923c-0.708-0.382-1.415-0.767-2.108-1.177c-0.277-0.164-0.551-0.34-0.826-0.513
			c-2.112-1.897-4.153-3.892-6.508-5.5c-2.945-2.011-6.215-3.511-9.614-4.577c-3.395-1.064-6.875-1.795-10.438-1.943
			c-3.65-0.151-7.12,0.447-10.632,1.388c-0.237,0.063-0.137,0.422,0.101,0.367c6.716-1.557,14.564-0.953,20.955,1.616
			c3.25,1.306,6.35,3.166,9.048,5.399c0.159,0.131,0.31,0.272,0.466,0.406c-0.088-0.023-0.173-0.064-0.262-0.082
			c-0.115-0.023-0.233-0.049-0.351-0.073c-4.043-2.736-9.51-3.35-14.249-3.17c-6.495,0.248-13.044,1.687-19.552,1.26
			C171.76,111.227,165.812,107.943,166.129,101.672z M170.835,174.652c-3.748,1.501-7.607,2.627-11.637,3.007
			c-4.006,0.378-7.8,0.122-11.656-1.086c-4.035-1.264-7.407-3.588-10.968-5.786c-2.863-1.767-6.07-3.256-9.42-3.394
			c8.735-7.8,20.571-11.777,32.272-10.772c2.89,0.248,5.735,0.852,8.53,1.63c0.786,0.571,1.652,1.047,2.507,1.537
			c1.839,1.055,3.082,2.446,4.167,4.253c0.344,0.573,0.681,1.149,1.021,1.722c-1.871-0.544-3.819-0.854-5.743-1.06
			c0.128-0.244-0.008-0.546-0.269-0.622c-0.014-0.004-0.329-0.055-0.244-0.035c0.087,0.021-0.273-0.071-0.336-0.076
			c-0.151-0.012-0.328,0.006-0.502,0.034c-0.728-0.389-1.501-0.72-2.325-1.05c-2-0.801-4.058-1.416-6.148-1.939
			c-4.016-1.004-8.121-1.619-12.252-1.876c-0.227-0.014-0.284,0.368-0.054,0.402c3.983,0.598,7.895,1.575,11.685,2.94
			c1.6,0.576,3.166,1.236,4.728,1.908c-1.641-0.014-3.283,0.023-4.929,0.1c-7.027,0.326-14.019,1.072-21.003,1.885
			c-0.173,0.02-0.183,0.286,0,0.278c6.842-0.307,13.711-0.668,20.557-0.293c1.761,0.096,3.525,0.231,5.285,0.393
			c-0.019,0.018-0.04,0.033-0.059,0.051c-1.604,1.512-3.199,3.112-5.271,3.961c-0.245,0.1-0.155,0.493,0.113,0.409
			c2.075-0.652,3.979-1.71,5.858-2.784c0.755-0.431,1.495-0.881,2.239-1.329c0.684,0.075,1.37,0.136,2.052,0.22
			c2.723,0.333,5.471,0.766,8.222,0.908c0.254,0.332,0.511,0.661,0.798,0.971c0.524,0.566,1.107,1.083,1.714,1.572
			C176.741,171.914,173.858,173.442,170.835,174.652z M180.469,167.971c-0.387-0.378-0.734-0.782-1.063-1.198
			c0.573-0.161,1.13-0.385,1.556-0.531c1.181-0.407,2.312-0.939,3.395-1.563c2.087-1.201,3.961-2.984,5.629-4.704
			c0.145-0.15-0.074-0.365-0.227-0.227c-1.843,1.642-3.913,2.668-6.164,3.627c-1.044,0.445-2.128,0.813-3.212,1.145
			c-0.578,0.177-1.162,0.329-1.751,0.463c-0.137,0.031-0.272,0.066-0.405,0.105c-0.325-0.514-0.642-1.034-0.954-1.562
			c-0.03-0.051-0.063-0.103-0.093-0.154c1.074,0.06,2.319-0.34,3.137-0.727c1.66-0.787,3.232-1.739,4.773-2.734
			c3.129-2.02,6.016-4.285,8.936-6.589c0.142-0.112-0.046-0.359-0.195-0.253c-2.799,1.997-5.788,3.778-8.734,5.549
			c-1.428,0.859-2.893,1.842-4.479,2.382c-0.778,0.265-1.642,0.469-2.46,0.562c-0.699,0.08-1.364-0.067-2.011,0.172
			c-0.365-0.541-0.748-1.068-1.184-1.548c0.071-0.014,0.144-0.018,0.215-0.034c0.882-0.203,1.749-0.479,2.593-0.805
			c1.652-0.639,3.183-1.506,4.67-2.462c0.143-0.092,0.018-0.306-0.133-0.227c-1.515,0.792-3.168,1.267-4.851,1.552
			c-0.801,0.136-1.61,0.214-2.422,0.243c-0.408,0.014-0.815,0.044-1.222,0.057c-0.289,0.01-0.586-0.002-0.875,0.027
			c-1.19-0.714-2.493-1.214-3.691-1.935c-3.329-2.006-2.663-6.415-4.88-9.248c-1.638-2.094-4.65-3.143-6.187-5.26
			c0.564-0.19,1.072-0.521,1.626-0.788c0.735-0.354,1.493-0.657,2.255-0.951c1.627-0.626,3.329-1.123,5.029-1.507
			c3.425-0.773,7.106-0.871,10.598-0.653c0.258,0.016,0.246-0.365,0-0.395c-3.722-0.457-7.382-0.639-11.122-0.303
			c-1.767,0.159-3.493,0.489-5.184,1.03c-0.831,0.266-1.641,0.612-2.431,0.982c-0.55,0.257-1.111,0.505-1.578,0.871
			c-0.052-0.211-0.094-0.43-0.119-0.66c-0.051-0.469-0.048-0.938-0.014-1.407c0.412,0.103,0.91-0.022,1.154-0.398
			c0.369-0.57,0.886-0.831,1.476-1.173c0.794-0.459,1.662-0.788,2.528-1.086c1.744-0.601,3.525-1.01,5.364-1.17
			c0.139-0.012,0.143-0.22,0-0.219c-2.068,0.009-4.143,0.179-6.172,0.588c-1.011,0.203-2.029,0.433-3.027,0.689
			c-0.313,0.08-0.615,0.201-0.888,0.357c0.192-0.727,0.418-1.444,0.629-2.143c0.619-2.056,1.071-4.1,1.374-6.226
			c0.321-2.248,0.572-4.576,1.582-6.643c0.867-1.776,2.251-3.237,3.886-4.331c3.122-2.088,6.737-2.757,10.238-3.87
			c1.151,0.103,2.307,0.125,3.429,0.101c3.895-0.085,7.781-0.654,11.664-0.943c3.758-0.28,7.536-0.131,11.24,0.608
			c3.351,0.668,6.362,2.034,9.323,3.68c0.28,0.249,0.576,0.48,0.883,0.698c-0.977-0.158-1.958-0.304-2.948-0.456
			c-0.245-0.037-0.356,0.311-0.105,0.381c2.559,0.71,5.162,1.771,7.484,3.067c0.627,0.35,1.252,0.717,1.868,1.097
			c-0.38-0.067-0.76-0.133-1.139-0.184c-0.12-0.016-0.237-0.017-0.356-0.03c-1.803-0.443-3.693-0.62-5.365-0.673
			c-4.794-0.153-9.426,1.254-14.064,2.27c-0.198,0.043-0.158,0.38,0.049,0.359c4.467-0.451,8.943-0.476,13.419-0.118
			c1.732,0.139,3.472,0.408,5.16,0.839c-2.535,0.176-4.971,0.798-7.312,1.791c-4.964,2.106-9.392,6.173-15.086,5.962
			c-0.259-0.01-0.324,0.408-0.062,0.46c5.034,0.999,9.861-1.21,14.342-3.259c2.448-1.119,4.917-2.026,7.61-2.332
			c1.267-0.144,2.565-0.199,3.84-0.18c0.734,0.011,1.463,0.083,2.191,0.153c-0.011,0.007-0.021,0.013-0.031,0.02
			c-0.034,0-0.064-0.006-0.099-0.004c-0.904,0.033-1.795,0.279-2.65,0.559c-1.936,0.633-3.777,1.595-5.521,2.637
			c-1.739,1.038-3.221,2.412-5.055,3.31c-2.024,0.991-4.319,1.553-6.566,1.641c-0.16,0.006-0.161,0.245,0,0.249
			c3.964,0.093,7.77-0.544,11.508-1.877c1.521-0.543,2.924-1.36,4.383-2.051c-0.22,0.211-0.44,0.422-0.66,0.635
			c-0.198,0.192,0.065,0.555,0.301,0.391c1.166-0.813,2.398-1.691,3.784-2.076c0.631-0.175,1.312-0.353,1.964-0.414
			c0.103-0.01,0.209-0.013,0.316-0.015c-2.319,3.333-6.864,3.326-10.064,5.703c-3.22,2.392-4.352,6.471-3.837,10.328
			c0.316,2.369,1.118,4.705,2.025,6.906c0.256,0.622,0.486,1.48,1.14,1.809c-0.089,0.066-0.174,0.14-0.252,0.225
			c-0.167,0.184-0.275,0.394-0.363,0.616c-0.023,0.034-0.05,0.06-0.072,0.095c-1.573,2.415-1.35,5.257-1.668,7.983
			c-1.029,2.548-2.56,4.929-4.011,7.21c-1.034,1.626-2.157,3.363-3.854,4.368c-1.047,0.62-2.213,0.84-3.396,0.847
			c-0.25-0.333-0.8-0.397-1.141-0.092c-0.013,0.012-0.024,0.027-0.037,0.039c-0.563-0.057-1.123-0.149-1.668-0.261
			c-3.741-0.773-7.614-1.968-11.012-3.728c-0.28-0.145-0.556-0.301-0.831-0.455c0.016-0.193-0.185-0.396-0.382-0.26
			c-0.012,0.008-0.023,0.019-0.035,0.027C182.514,169.667,181.423,168.901,180.469,167.971z M210.729,203.594
			c-1.65,3.505-4.188,6.063-7.208,8.419c-2.736,2.134-5.671,4.224-7.708,7.081c-2.419,3.394-2.443,7.524-3.459,11.399
			c-4.353-7.205-8.438-14.519-11.871-22.222c-1.829-4.104-3.327-8.469-3.455-13c-0.124-4.406,0.782-8.806,1.746-13.085
			c0.758-3.36,1.736-6.814,3.734-9.64c0.126,0.067,0.248,0.145,0.375,0.209c3.646,1.837,7.745,2.814,11.708,3.706
			c0.516,0.116,1.041,0.218,1.57,0.305c-0.711,1.137-1.243,2.451-1.695,3.751c-0.316,0.264-0.619,0.536-0.893,0.794
			c-0.883,0.831-1.702,1.686-2.454,2.638c-1.54,1.951-2.67,4.115-3.828,6.304c-0.111,0.21,0.182,0.376,0.316,0.185
			c1.403-2.016,2.946-3.847,4.747-5.521c0.333-0.31,0.665-0.62,0.998-0.93c-0.791,2.629-1.336,5.33-1.855,8.023
			c-1.157,5.995-1.646,12.137-1.552,18.239c0.004,0.236,0.355,0.235,0.366,0c0.279-6.102,1.268-12.104,2.902-17.988
			c0.527-1.898,1.183-3.759,1.871-5.606c0.137,0.953,0.302,1.901,0.538,2.841c0.725,2.894,1.886,5.711,3.15,8.408
			c0.137,0.293,0.553,0.037,0.429-0.251c-1.116-2.603-1.754-5.29-2.165-8.086c-0.331-2.251-0.425-4.491-0.489-6.746
			c0.391-1.016,0.781-2.032,1.184-3.044c0.372-0.933,0.73-1.844,0.952-2.797c1.133-0.005,2.256-0.166,3.327-0.6
			c2.099-0.851,3.585-2.562,4.831-4.392c0.362-0.532,0.724-1.073,1.083-1.621c0.053,3.131,1.397,6.23,3.496,8.719
			c0.181,1.886,0.634,3.74,0.889,5.623c0.31,2.286,0.489,4.621,0.568,6.927C213.016,195.716,212.482,199.87,210.729,203.594z
			 M221.401,183.049c-1.696-0.06-3.205-0.535-4.671-1.388c-4.517-2.629-8.064-7.621-7.851-12.794
			c1.95-3.166,3.61-6.579,4.067-10.241c0-0.003-0.001-0.005-0.001-0.007c0.02-0.063,0.043-0.124,0.063-0.187
			c0.109-0.212,0.218-0.43,0.303-0.652c0.1-0.261,0.185-0.527,0.27-0.794c0.07-0.145,0.125-0.297,0.205-0.437
			c0.839-1.457,2.423-2.329,3.856-3.128c-0.639,0.939-1.148,1.972-1.514,3.037c-0.387,1.124-0.508,2.335-0.558,3.518
			c-0.053,1.257-0.118,2.479-0.286,3.728c-0.016,0.122,0.194,0.151,0.215,0.029c0.195-1.109,0.431-2.15,0.841-3.202
			c0.392-1.006,0.863-1.974,1.286-2.966c0.734-1.723,1.658-3.375,2.981-4.72c0.296-0.301,1.05-1.023,1.011-1.582
			c0.417-0.232,0.829-0.475,1.238-0.723c0.285-0.162,0.567-0.33,0.836-0.515c0.011-0.008,0.023-0.014,0.035-0.021
			c0.003-0.002,0.003-0.006,0.006-0.009c1.11-0.768,2.097-1.703,2.955-2.76c0.603-0.742,1.112-1.549,1.572-2.382
			c-0.608,2.074-1.074,4.18-1.218,6.37c-0.466,7.052,1.227,13.794,4.818,19.859c0.096,0.163,0.341,0.019,0.253-0.148
			c-3.568-6.726-3.522-14.585-2.093-21.873c0.352-1.796,0.843-3.558,1.443-5.287c0.625-1.804,1.384-3.585,1.73-5.472
			c0.152-0.829,0.251-1.709,0.234-2.581c0.183,1.136,0.323,2.284,0.336,3.426c0.02,1.772-0.213,3.539-0.411,5.297
			c-0.387,3.426-0.505,6.798-0.077,10.229c0.418,3.348,1.205,6.66,2.465,9.794c1.319,3.281,3.156,6.141,5.198,9.009
			c0.108,0.151,0.358,0.012,0.253-0.148c-1.985-3.009-3.36-6.529-4.38-9.975c-0.989-3.342-1.601-6.768-1.712-10.256
			c-0.11-3.461,0.409-6.81,0.834-10.231c0.334-2.688,0.554-5.756-0.781-8.162c-0.063-0.307-0.128-0.614-0.216-0.912
			c-0.066-0.222-0.15-0.439-0.228-0.658c0.566,1.132,1.218,2.231,1.603,3.451c0.283,0.897,0.493,1.828,0.615,2.761
			c0.15,1.145,0.038,2.294,0.108,3.443c0.045,0.747,0.191,1.455,0.4,2.138c-0.369,3.497-0.604,7.058-0.12,10.475
			c0.585,4.134,2.63,7.894,5.201,11.121c0.113,0.142,0.36-0.047,0.253-0.195c-2.507-3.456-3.69-7.688-3.837-11.925
			c-0.071-2.039,0.196-4.139,0.375-6.234c0.23,0.244,0.483,0.479,0.75,0.703c0.048,0.074,0.086,0.155,0.135,0.228
			c0.968,1.45,2.311,2.728,4.114,2.942c0.788,0.094,1.636-0.07,2.3-0.521c0.533-0.362,0.641-0.821,1.424-0.709
			c0.413,0.059,0.799,0.224,1.223,0.262c1.582,0.141,3.171-0.578,4.124-1.842c0.41-0.544,0.663-1.151,0.929-1.757
			c2.564,2.408,4.409,5.242,5.885,8.432c0.237,1.18,0.298,2.501,0.384,3.655c0.204,2.73-0.014,5.427-0.58,8.103
			c-0.324,1.533-0.692,3.125-1.714,4.362c-0.87,1.054-2.024,1.832-2.968,2.814c-1.981,2.063-2.678,4.943-4.738,6.981
			c-0.786,0.777-1.683,1.503-2.658,2.158c-0.049-0.077-0.098-0.154-0.167-0.218c-0.123-0.116-0.27-0.217-0.401-0.324
			c-0.155-0.127-0.321-0.237-0.485-0.353c-0.064-0.045-0.127-0.091-0.189-0.138c-0.035-0.026-0.069-0.052-0.104-0.078
			c-0.011-0.009-0.1-0.079-0.037-0.029c-0.249-0.2-0.508-0.409-0.715-0.651c-0.215-0.251-0.419-0.51-0.613-0.778
			c-0.228-0.315-0.722-0.045-0.53,0.31c0.162,0.3,0.335,0.595,0.52,0.882c0.183,0.284,0.342,0.584,0.515,0.874
			c0.186,0.314,0.373,0.636,0.605,0.919c0.105,0.128,0.218,0.249,0.338,0.361c-0.435,0.248-0.881,0.481-1.337,0.699
			c-0.023-0.316-0.234-0.572-0.459-0.816c-0.191-0.207-0.369-0.43-0.57-0.628c-0.424-0.418-0.875-0.805-1.289-1.236
			c-0.398-0.413-0.79-0.835-1.157-1.277c-0.395-0.476-0.718-0.975-1.029-1.51c-0.128-0.22-0.466-0.023-0.341,0.199
			c0.296,0.525,0.593,1.039,0.862,1.578c0.275,0.55,0.553,1.099,0.851,1.637c0.285,0.514,0.564,1.054,0.891,1.543
			c0.184,0.274,0.412,0.527,0.623,0.781c0.099,0.119,0.201,0.217,0.307,0.302c-0.572,0.225-1.155,0.42-1.744,0.59
			c-0.256-0.885-1.107-1.613-1.68-2.29c-0.654-0.774-1.221-1.63-1.733-2.504c-1.066-1.817-1.8-3.779-2.077-5.873
			c-0.034-0.253-0.406-0.272-0.41,0c-0.031,2.148,0.337,4.339,1.177,6.322c0.426,1.004,0.964,1.929,1.62,2.8
			c0.324,0.431,0.669,0.844,1.005,1.265c0.18,0.225,0.349,0.449,0.53,0.661c-2.371,0.461-4.783,0.426-6.975-0.309
			c-2.678-0.897-4.904-2.865-7.716-3.421C224.48,182.97,222.941,183.103,221.401,183.049z M248.322,213.702
			c0.892-5.117,2.182-10.319,4.375-15.046c1.147-2.473,2.581-4.797,4.348-6.877c1.449-1.706,3.15-3.042,4.998-4.232
			c-0.623,1.329-0.926,2.733-0.909,4.271c0.026,2.42,0.724,4.793,1.186,7.152c0.923,4.706,1.515,9.618,0.441,14.351
			c-0.973,4.283-3.264,8.098-5.587,11.77c-2.395,3.785-4.85,7.536-6.684,11.637c0.183-2.935,0.275-5.873,0.576-8.8
			c0.641-6.227,1.582-12.557,4.102-18.336c0.059-0.136-0.145-0.238-0.208-0.102c-4.257,9.232-5.55,19.466-6.415,29.504
			c-0.004,0.046-0.006,0.093-0.01,0.14c-0.66-3.08-1.069-6.216-1.244-9.352C246.992,224.408,247.398,219.001,248.322,213.702z
			 M174.872,237.77c0.003-0.002,0.007-0.003,0.01-0.005c0,0,0,0.001,0,0.001C174.879,237.768,174.876,237.768,174.872,237.77z
			 M167.015,239.793c1.785,0.406,3.709,0.593,5.532,0.341c0.45-0.062,0.897-0.151,1.34-0.254c0.006-0.001,0.013-0.002,0.019-0.003
			c-0.667,0.802-1.432,1.503-2.397,2.137c-1.589,1.045-3.371,1.779-5.207,2.257c-3.732,0.972-7.828,0.818-11.431-0.554
			c-0.091-0.034-0.167,0.107-0.079,0.155c3.775,2.05,8.131,2.694,12.329,1.755c1.938-0.434,3.793-1.191,5.492-2.217
			c-0.481,0.426-0.982,0.84-1.526,1.232c-2.815,2.03-6.399,3.08-9.852,3.119c-8.118,0.093-15.154-4.6-20.779-10.039
			c-1.953-1.889-3.854-3.861-5.593-5.961c-0.894-1.837-2.204-3.465-3.474-5.045c-0.724-0.902-1.473-1.802-2.279-2.633
			c-0.567-0.585-1.202-1.174-2.041-1.277c-0.212-0.026-0.288,0.309-0.078,0.369c0.932,0.268,1.424,1.288,1.977,2.008
			c0.141,0.183,0.28,0.367,0.421,0.551c-0.107-0.109-0.2-0.228-0.316-0.33c-0.67-0.593-1.39-1.105-2.161-1.56
			c-1.116-0.659-2.314-1.174-3.584-1.338c0.765-0.498,1.782-0.55,2.672-0.235c0.029,0.01,0.055,0.007,0.083,0.013
			c0.716,0.268,1.47,0.474,2.14,0.769c1.419,0.625,2.769,1.389,4.042,2.275c2.841,1.978,5.273,4.478,7.606,7.017
			c0.032,0.035,0.085-0.01,0.056-0.047c-2.237-2.882-4.404-5.836-7.18-8.234c-1.203-1.039-2.511-1.967-3.942-2.667
			c-1.065-0.521-2.272-1.085-3.467-1.008c-0.61-0.486-1.178-1.01-1.713-1.574c0.897,0.15,1.803,0.196,2.734,0.082
			c0.127-0.015,0.21-0.076,0.27-0.153c1.074,0.504,2.21,0.851,3.348,1.197c2.982,0.907,6.056,1.399,9.061,2.207
			c0.234,0.063,0.363-0.289,0.126-0.359c-2.756-0.812-5.329-2.071-7.973-3.183c-1.27-0.534-2.549-1.047-3.765-1.698
			c-0.307-0.164-0.611-0.337-0.917-0.506c0.375,0.077,0.753,0.144,1.136,0.187c0.559,0.062,0.717-0.646,0.338-0.957
			c-0.387-0.317-0.782-0.626-1.172-0.939c1.859,0.458,3.75,0.805,5.655,0.947c1.159,0.087,2.457,0.125,3.727-0.003
			c-1.889,1.08-3.82,2.074-6.045,1.772c-0.172-0.023-0.183,0.229-0.021,0.262c2.996,0.614,5.971-0.479,8.546-1.943
			c1.443-0.82,2.82-1.613,4.444-2.022c1.528-0.385,3.103-0.402,4.637-0.722c0.093-0.019,0.105-0.15,0.015-0.183
			c-0.088-0.033-0.183-0.045-0.273-0.073c0.911-0.106,1.828-0.17,2.758-0.155c3.791,0.063,7.475,1.096,10.863,2.772
			c3.453,1.709,6.622,4.067,9.317,6.816c2.948,3.007,5.578,6.686,6.359,10.907c0.23,1.244,0.235,2.531,0.069,3.797
			c-0.192-0.993-0.563-1.983-0.972-2.892c-1.312-2.916-3.161-5.602-5.379-7.9c-4.426-4.584-10.603-7.491-16.63-9.295
			c-0.099-0.03-0.152,0.118-0.053,0.152c5.639,1.946,10.686,5.136,14.758,9.501c2.961,3.173,5.585,6.994,6.293,11.284
			c-0.129,0.039-0.245,0.098-0.367,0.161c-0.279,0.143-0.591,0.276-0.881,0.396c-0.661,0.273-1.396,0.421-2.089,0.589
			c-1.447,0.353-2.932,0.503-4.42,0.449C166.851,239.301,166.726,239.727,167.015,239.793z M224.032,272.341
			c-2.554-10.552-3.526-21.327-2.509-32.147c0.543-5.774,1.499-11.489,2.592-17.18c1.581,4.605,3.281,9.153,5.331,13.58
			c2.399,5.179,5.296,10.169,6.962,15.655c1.581,5.205,2.093,10.645,1.541,16.055c-0.56,5.496-2.515,10.58-4.297,15.762
			c-0.37,1.075-0.733,2.178-1.07,3.29c-0.123-3.291-0.304-6.58-0.473-9.869c-0.319-6.206-0.66-12.449-2.507-18.426
			c-0.072-0.233-0.434-0.135-0.367,0.101c1.746,6.109,1.524,12.501,1.378,18.79c-0.074,3.174-0.158,6.347-0.185,9.521
			c-0.014,1.623-0.009,3.247,0.018,4.87c-0.612-1.584-1.217-3.171-1.794-4.77C226.853,282.583,225.28,277.497,224.032,272.341z
			 M218.717,310.623c-3.289-1.54-6.48-3.169-9.403-5.348c-2.527-1.884-4.787-4.068-6.891-6.409
			c-4.237-4.714-7.768-10.004-11.472-15.132c-3.579-4.954-7.345-9.822-11.882-13.928c10.645,2.362,20.73,6.934,29.514,13.413
			c4.757,3.509,9.112,7.573,12.94,12.078c4.527,5.327,8.411,11.212,12.289,17.018c0.634,0.949,1.28,1.905,1.923,2.869
			c-1.036-1.03-2.123-2.01-3.248-2.928c-2.851-2.327-5.86-4.444-8.751-6.719c-3.179-2.501-6.302-5.063-9.373-7.697
			c-3.46-2.968-6.953-5.913-10.293-9.016c-0.179-0.166-0.447,0.099-0.269,0.269c5.614,5.359,11.209,10.724,16.902,16.002
			c2.706,2.509,5.38,5.053,8.136,7.508c2.324,2.07,4.667,4.183,6.646,6.593c0.042,0.051,0.08,0.105,0.122,0.156
			C230.622,315.44,224.408,313.287,218.717,310.623z M226.332,341.629c-1.984,0.342-3.95,0.755-5.915,1.188
			c-7.654,1.687-15.433,3.712-23.322,2.468c-3.729-0.588-7.272-1.901-10.627-3.605c-3.265-1.658-6.477-3.619-9.061-6.239
			c-4.846-4.914-7.382-11.541-11.191-17.2c-4.037-5.997-9.174-11.181-14.986-15.462c11.872-5.265,25.518-3.203,37.073,2.012
			c11.964,5.4,22.112,13.544,31.002,23.103c3.644,3.918,7.256,7.826,11.456,11.084c-1.648-0.626-3.342-1.158-5.064-1.636
			c-1.447-0.491-2.895-0.98-4.339-1.48c-4.237-1.467-8.459-3.053-12.399-5.203c-0.109-0.07-0.225-0.143-0.331-0.211
			c-0.543-0.347-1.086-0.676-1.641-0.981c-0.275-0.545-0.604-1.068-0.96-1.568c-0.878-1.237-1.724-2.507-2.653-3.707
			c-1.589-2.052-3.22-4.093-4.948-6.03c-3.271-3.666-7.101-6.855-11.72-8.66c-0.13-0.051-0.225,0.17-0.096,0.227
			c4.596,2.029,8.01,5.787,10.886,9.808c1.288,1.801,2.442,3.678,3.605,5.557c-2.409-2.054-4.744-4.204-7.303-6.076
			c-4.178-3.057-8.933-5.37-13.724-7.292c-5.581-2.239-11.297-3.449-17.253-4.103c-0.195-0.021-0.243,0.316-0.047,0.345
			c10.631,1.551,20.498,6.273,28.892,12.849c2.742,2.148,5.25,4.576,7.891,6.84c-1.396-0.052-2.801-0.037-4.226-0.088
			c-6.115-0.219-12.033-1.951-16.969-5.639c-0.132-0.099-0.304,0.123-0.177,0.23c4.396,3.682,9.756,6.654,15.45,7.678
			c3.079,0.554,6.293,0.285,9.317,1.098c0.485,0.13,0.971,0.286,1.456,0.438c0.014,0.009,0.027,0.019,0.041,0.028
			c2.544,1.664,5.264,3.018,8.059,4.203c-1.918,0.38-3.804,0.991-5.574,1.671c-3.512,1.348-6.924,2.409-10.734,2.097
			c-3.828-0.313-7.745-1.673-11.249-3.196c-0.171-0.074-0.32,0.178-0.148,0.252c3.313,1.44,6.463,3.099,9.986,4.006
			c3.571,0.919,7.056,0.785,10.656,0.106c3.535-0.666,6.964-1.806,10.574-1.983c1.478-0.073,2.918-0.08,4.344-0.003
			c2.669,0.939,5.346,1.875,8.04,2.758C227.704,341.404,227.012,341.512,226.332,341.629z M229.116,406.841
			c-6.173-10.247-11.79-20.769-12.802-32.907c-0.608-7.291,0.16-14.744,1.628-21.912c2.773,3.208,6.266,5.628,9.452,8.425
			c1.919,1.684,3.712,3.537,4.952,5.788c1.375,2.496,2.082,5.25,2.623,8.027c1.181,6.067,1.608,12.178,1.419,18.356
			c-0.191,6.262-1.174,12.503-0.564,18.772c0.07,0.714,0.161,1.424,0.259,2.132c-1.009-2.433-1.947-4.896-2.802-7.386
			c-3.065-8.929-5.18-18.149-8.208-27.094c-0.075-0.221-0.426-0.128-0.352,0.097c3.974,12.171,5.376,25.214,10.005,37.168
			C232.915,413.09,230.984,409.943,229.116,406.841z M252.56,420.888c2.912-5.668,6.661-10.935,11.025-15.575
			c8.697-9.245,19.889-16.746,31.964-20.764c7.129-2.372,14.613-3.602,22.104-2.612c-4.279,12.039-11.087,24.822-23.659,29.584
			c-3.13,1.186-6.388,1.972-9.64,2.741c-3.461,0.819-6.893,1.715-10.323,2.651c-6.01,1.641-12.23,3.314-17.627,6.532
			c2.354-2.784,4.84-5.466,7.436-8.019c6.296-6.189,13.25-11.699,20.778-16.314c4.203-2.577,8.563-4.918,13.099-6.852
			c0.158-0.068,0.043-0.346-0.118-0.281c-16.801,6.85-32.5,16.848-44.471,30.639c-1.126,1.297-2.222,2.65-3.201,4.076
			C250.724,424.702,251.602,422.754,252.56,420.888z M320.98,328.935c-0.001,0.004-0.002,0.007-0.003,0.011c0,0-0.001,0-0.001-0.001
			C320.977,328.942,320.98,328.939,320.98,328.935z M319.785,323.653c0.184-1.893,0.73-3.741,1.509-5.471
			c1.584-3.516,4.274-6.609,7.603-8.555c0.084-0.049,0.022-0.198-0.072-0.159c-3.965,1.654-7.199,4.642-9.101,8.501
			c-0.878,1.781-1.452,3.701-1.719,5.667c-0.03-0.642-0.038-1.292-0.002-1.962c0.186-3.466,1.616-6.915,3.752-9.629
			c5.02-6.38,13.089-8.916,20.854-9.884c2.696-0.336,5.424-0.579,8.15-0.616c1.991,0.456,4.081,0.457,6.108,0.46
			c1.156,0.002,2.327-0.017,3.48-0.123c0.811-0.075,1.668-0.2,2.275-0.789c0.153-0.149-0.06-0.418-0.238-0.292
			c-0.793,0.557-1.896,0.301-2.804,0.28c-0.231-0.005-0.462-0.012-0.693-0.018c0.152-0.015,0.303-0.013,0.456-0.039
			c0.882-0.15,1.732-0.389,2.57-0.704c1.213-0.456,2.366-1.066,3.29-1.952c-0.092,0.907-0.689,1.733-1.493,2.228
			c-0.026,0.016-0.04,0.038-0.062,0.057c-0.658,0.389-1.292,0.848-1.941,1.184c-1.377,0.713-2.818,1.285-4.307,1.72
			c-3.322,0.972-6.795,1.297-10.236,1.521c-0.047,0.003-0.045,0.072,0.002,0.073c3.648,0.066,7.307,0.231,10.917-0.425
			c1.564-0.285,3.107-0.721,4.55-1.397c1.074-0.503,2.27-1.089,2.96-2.067c0.761-0.17,1.526-0.283,2.3-0.347
			c-0.679,0.604-1.284,1.281-1.779,2.077c-0.067,0.108-0.072,0.211-0.05,0.307c-1.066,0.52-2.049,1.187-3.033,1.857
			c-2.577,1.753-4.889,3.839-7.403,5.672c-0.196,0.143-0.002,0.464,0.201,0.323c2.361-1.637,4.956-2.851,7.48-4.212
			c1.212-0.654,2.415-1.328,3.684-1.867c0.321-0.136,0.646-0.265,0.969-0.396c-0.295,0.244-0.585,0.495-0.858,0.767
			c-0.399,0.397,0.053,0.964,0.533,0.863c0.49-0.103,0.977-0.216,1.466-0.324c-1.523,1.16-2.979,2.416-4.285,3.81
			c-0.795,0.849-1.639,1.835-2.336,2.904c0.344-2.148,0.781-4.276,2.412-5.819c0.126-0.119-0.064-0.286-0.191-0.181
			c-2.358,1.948-3.373,4.951-3.848,7.874c-0.266,1.638-0.513,3.208-1.214,4.729c-0.659,1.432-1.634,2.669-2.347,4.064
			c-0.043,0.084,0.051,0.176,0.133,0.127c0.081-0.048,0.15-0.115,0.228-0.167c-0.489,0.776-1.014,1.531-1.61,2.245
			c-2.428,2.913-5.543,5.134-8.973,6.72c-3.497,1.617-7.322,2.606-11.152,2.98c-4.191,0.409-8.706,0.15-12.483-1.89
			c-1.113-0.601-2.118-1.405-3-2.329c0.894,0.473,1.898,0.806,2.862,1.057c3.094,0.807,6.345,1.053,9.526,0.766
			c6.346-0.571,12.485-3.557,17.671-7.119c0.085-0.058,0.004-0.192-0.085-0.137c-5.053,3.17-10.703,5.099-16.657,5.533
			c-4.329,0.315-8.95-0.038-12.735-2.178c0.05-0.126,0.077-0.252,0.105-0.387c0.063-0.307,0.156-0.633,0.245-0.935
			c0.203-0.686,0.549-1.351,0.852-1.997c0.633-1.348,1.448-2.598,2.423-3.724c0.174-0.201-0.079-0.566-0.311-0.383
			c-1.437,1.136-2.788,2.516-3.736,4.094c-0.234,0.389-0.445,0.794-0.642,1.203c-0.003,0.006-0.007,0.011-0.009,0.017
			C319.741,325.838,319.674,324.802,319.785,323.653z M290.184,311.927c-1.027-3.374-1.855-6.766-2.61-10.209
			c-0.856-3.903-2.166-7.678-3.101-11.557c-0.902-3.739-1.261-7.62-1.83-11.42c-0.58-3.872-0.713-7.811-0.471-11.718
			c0.272-4.384,1.004-8.747,2.087-13.002c0.876-3.444,1.866-6.859,2.499-10.353c0.915,2.385,1.458,4.904,2.285,7.324
			c1.158,3.392,2.51,6.727,3.778,10.079c1.246,3.292,2.499,6.582,3.731,9.88c1.233,3.3,2.364,6.653,2.779,10.168
			c0.823,6.976,0.361,14.158-0.014,21.151c-0.293,5.453-0.71,10.899-1.03,16.35c-0.891-7.051-2.174-14.047-3.649-20.998
			c-0.999-4.706-2.172-9.375-3.391-14.028c-0.062-0.237-0.426-0.137-0.367,0.101c4.048,16.204,5.288,32.816,5.674,49.464
			c0.002,0.102,0.002,0.203,0.004,0.305C295.08,326.151,292.319,318.945,290.184,311.927z"/>
	</g>
</g>
</svg>
